<svg xmlns="http://www.w3.org/2000/svg" xmlns:xlink="http://www.w3.org/1999/xlink" version="1.1" width="672pt" height="401pt" viewBox="0 0 672 401">
<defs>
<clipPath id="clip_0">
<path transform="matrix(1,0,0,-1,0,401)" d="M0 0H672V401H0Z"/>
</clipPath>
<clipPath id="clip_1">
<path transform="matrix(1,0,0,-1,-49,542)" d="M48.52 542.96H793.16006V52.600038H48.52Z" fill-rule="evenodd"/>
</clipPath>
<clipPath id="clip_2">
<path transform="matrix(1,0,0,-1,-49,542)" d="M.1 594.94H841.55V.59002688H.1Z" fill-rule="evenodd"/>
</clipPath>
<clipPath id="clip_3">
<path transform="matrix(1,0,0,-1,-49,542)" d="M50.52 540.96H720.48007V141.96002H50.52Z" fill-rule="evenodd"/>
</clipPath>
<clipPath id="clip_4">
<path transform="matrix(1,0,0,-1,-49,542)" d="M48.5 542.94H794.15V52.589998H48.5Z" fill-rule="evenodd"/>
</clipPath>
<clipPath id="clip_5">
<path transform="matrix(1,0,0,-1,-49,542)" d="M47.52 543.96H723.48007V138.96002H47.52Z" fill-rule="evenodd"/>
</clipPath>
</defs>
<g>
<g>
<g clip-path="url(#clip_0)">
<path transform="matrix(1,0,0,-1,0,401)" d="M0 0H672V401H0Z" fill="#484848"/>
</g>
</g>
<g clip-path="url(#clip_1)">
<g clip-path="url(#clip_2)">
<g clip-path="url(#clip_3)">
<path transform="matrix(1,0,0,1,1.4000015,.91999819)" d="M0 0H59.16V25.08H0Z" fill="#b4c6e7" fill-rule="evenodd"/>
<path transform="matrix(1,0,0,1,60.440004,.91999819)" d="M0 0H99.12V25.08H0Z" fill="#b4c6e7" fill-rule="evenodd"/>
<path transform="matrix(1,0,0,1,159.44,.91999819)" d="M0 0H86.04V25.08H0Z" fill="#b4c6e7" fill-rule="evenodd"/>
<path transform="matrix(1,0,0,1,245.35999,.91999819)" d="M0 0H88.19V25.08H0Z" fill="#b4c6e7" fill-rule="evenodd"/>
<path transform="matrix(1,0,0,1,333.44,.91999819)" d="M0 0H82.08V25.08H0Z" fill="#b4c6e7" fill-rule="evenodd"/>
<path transform="matrix(1,0,0,1,415.4,.91999819)" d="M0 0H82.08V25.08H0Z" fill="#b4c6e7" fill-rule="evenodd"/>
<path transform="matrix(1,0,0,1,497.36,.91999819)" d="M0 0H81.12V25.08H0Z" fill="#b4c6e7" fill-rule="evenodd"/>
<path transform="matrix(1,0,0,1,578.36,.91999819)" d="M0 0H93.12V25.08H0Z" fill="#b4c6e7" fill-rule="evenodd"/>
<path transform="matrix(1,0,0,1,1.4000015,25.879998)" d="M0 0H59.16V176.16H0Z" fill="#e7e6e6" fill-rule="evenodd"/>
<path transform="matrix(1,0,0,1,1.4000015,201.92)" d="M0 0H59.16V66.12H0Z" fill="#e7e6e6" fill-rule="evenodd"/>
<path transform="matrix(1,0,0,1,1.4000015,267.91999)" d="M0 0H59.16V132.12H0Z" fill="#e7e6e6" fill-rule="evenodd"/>
<path transform="matrix(1,0,0,1,60.440004,25.879998)" d="M0 0H99.12V22.19H0Z" fill="#d9e1f2" fill-rule="evenodd"/>
<path transform="matrix(1,0,0,1,159.44,25.879998)" d="M0 0H86.04V22.19H0Z" fill="#d9e1f2" fill-rule="evenodd"/>
<path transform="matrix(1,0,0,1,245.35999,25.879998)" d="M0 0H88.19V22.19H0Z" fill="#d9e1f2" fill-rule="evenodd"/>
<path transform="matrix(1,0,0,1,333.44,25.879998)" d="M0 0H82.08V22.19H0Z" fill="#d9e1f2" fill-rule="evenodd"/>
<path transform="matrix(1,0,0,1,415.4,25.879998)" d="M0 0H82.08V22.19H0Z" fill="#d9e1f2" fill-rule="evenodd"/>
<path transform="matrix(1,0,0,1,497.36,25.879998)" d="M0 0H81.12V22.19H0Z" fill="#d9e1f2" fill-rule="evenodd"/>
<path transform="matrix(1,0,0,1,578.36,25.879998)" d="M0 0H93.12V374.16H0Z" fill="#d9e1f2" fill-rule="evenodd"/>
<path transform="matrix(1,0,0,1,60.440004,47.96)" d="M0 0H99.12V22.08H0Z" fill="#e2efda" fill-rule="evenodd"/>
<path transform="matrix(1,0,0,1,159.44,47.96)" d="M0 0H86.04V22.08H0Z" fill="#e2efda" fill-rule="evenodd"/>
<path transform="matrix(1,0,0,1,245.35999,47.96)" d="M0 0H88.19V22.08H0Z" fill="#e2efda" fill-rule="evenodd"/>
<path transform="matrix(1,0,0,1,333.44,47.96)" d="M0 0H82.08V22.08H0Z" fill="#e2efda" fill-rule="evenodd"/>
<path transform="matrix(1,0,0,1,415.4,47.96)" d="M0 0H82.08V22.08H0Z" fill="#e2efda" fill-rule="evenodd"/>
<path transform="matrix(1,0,0,1,497.36,47.96)" d="M0 0H81.12V22.08H0Z" fill="#e2efda" fill-rule="evenodd"/>
<path transform="matrix(1,0,0,1,60.440004,69.92)" d="M0 0H99.12V22.08H0Z" fill="#e2efda" fill-rule="evenodd"/>
<path transform="matrix(1,0,0,1,159.44,69.92)" d="M0 0H86.04V22.08H0Z" fill="#e2efda" fill-rule="evenodd"/>
<path transform="matrix(1,0,0,1,245.35999,69.92)" d="M0 0H88.19V22.08H0Z" fill="#e2efda" fill-rule="evenodd"/>
<path transform="matrix(1,0,0,1,333.44,69.92)" d="M0 0H82.08V22.08H0Z" fill="#e2efda" fill-rule="evenodd"/>
<path transform="matrix(1,0,0,1,415.4,69.92)" d="M0 0H82.08V22.08H0Z" fill="#e2efda" fill-rule="evenodd"/>
<path transform="matrix(1,0,0,1,497.36,69.92)" d="M0 0H81.12V22.08H0Z" fill="#e2efda" fill-rule="evenodd"/>
<path transform="matrix(1,0,0,1,60.440004,113.95999)" d="M0 0H99.12V22.08H0Z" fill="#e2efda" fill-rule="evenodd"/>
<path transform="matrix(1,0,0,1,159.44,113.95999)" d="M0 0H86.04V22.08H0Z" fill="#e2efda" fill-rule="evenodd"/>
<path transform="matrix(1,0,0,1,245.35999,113.95999)" d="M0 0H88.19V22.08H0Z" fill="#e2efda" fill-rule="evenodd"/>
<path transform="matrix(1,0,0,1,333.44,113.95999)" d="M0 0H82.08V22.08H0Z" fill="#e2efda" fill-rule="evenodd"/>
<path transform="matrix(1,0,0,1,415.4,113.95999)" d="M0 0H82.08V22.08H0Z" fill="#e2efda" fill-rule="evenodd"/>
<path transform="matrix(1,0,0,1,497.36,113.95999)" d="M0 0H81.12V22.08H0Z" fill="#e2efda" fill-rule="evenodd"/>
<path transform="matrix(1,0,0,1,60.440004,135.92)" d="M0 0H99.12V22.08H0Z" fill="#e2efda" fill-rule="evenodd"/>
<path transform="matrix(1,0,0,1,159.44,135.92)" d="M0 0H86.04V22.08H0Z" fill="#e2efda" fill-rule="evenodd"/>
<path transform="matrix(1,0,0,1,245.35999,135.92)" d="M0 0H88.19V22.08H0Z" fill="#e2efda" fill-rule="evenodd"/>
<path transform="matrix(1,0,0,1,333.44,135.92)" d="M0 0H82.08V22.08H0Z" fill="#e2efda" fill-rule="evenodd"/>
<path transform="matrix(1,0,0,1,415.4,135.92)" d="M0 0H82.08V22.08H0Z" fill="#e2efda" fill-rule="evenodd"/>
<path transform="matrix(1,0,0,1,497.36,135.92)" d="M0 0H81.12V22.08H0Z" fill="#e2efda" fill-rule="evenodd"/>
<path transform="matrix(1,0,0,1,60.440004,179.95999)" d="M0 0H99.12V22.08H0Z" fill="#e2efda" fill-rule="evenodd"/>
<path transform="matrix(1,0,0,1,159.44,179.95999)" d="M0 0H86.04V22.08H0Z" fill="#e2efda" fill-rule="evenodd"/>
<path transform="matrix(1,0,0,1,245.35999,179.95999)" d="M0 0H88.19V22.08H0Z" fill="#e2efda" fill-rule="evenodd"/>
<path transform="matrix(1,0,0,1,333.44,179.95999)" d="M0 0H82.08V22.08H0Z" fill="#e2efda" fill-rule="evenodd"/>
<path transform="matrix(1,0,0,1,415.4,179.95999)" d="M0 0H82.08V22.08H0Z" fill="#e2efda" fill-rule="evenodd"/>
<path transform="matrix(1,0,0,1,497.36,179.95999)" d="M0 0H81.12V22.08H0Z" fill="#e2efda" fill-rule="evenodd"/>
<path transform="matrix(1,0,0,1,60.440004,267.91999)" d="M0 0H99.12V22.08H0Z" fill="#e2efda" fill-rule="evenodd"/>
<path transform="matrix(1,0,0,1,159.44,267.91999)" d="M0 0H86.04V22.08H0Z" fill="#e2efda" fill-rule="evenodd"/>
<path transform="matrix(1,0,0,1,245.35999,267.91999)" d="M0 0H88.19V22.08H0Z" fill="#e2efda" fill-rule="evenodd"/>
<path transform="matrix(1,0,0,1,333.44,267.91999)" d="M0 0H82.08V22.08H0Z" fill="#e2efda" fill-rule="evenodd"/>
<path transform="matrix(1,0,0,1,415.4,267.91999)" d="M0 0H82.08V22.08H0Z" fill="#e2efda" fill-rule="evenodd"/>
<path transform="matrix(1,0,0,1,497.36,267.91999)" d="M0 0H81.12V22.08H0Z" fill="#e2efda" fill-rule="evenodd"/>
<path transform="matrix(1,0,0,1,60.440004,289.88)" d="M0 0H99.12V22.19H0Z" fill="#e2efda" fill-rule="evenodd"/>
<path transform="matrix(1,0,0,1,159.44,289.88)" d="M0 0H86.04V22.19H0Z" fill="#e2efda" fill-rule="evenodd"/>
<path transform="matrix(1,0,0,1,245.35999,289.88)" d="M0 0H88.19V22.19H0Z" fill="#e2efda" fill-rule="evenodd"/>
<path transform="matrix(1,0,0,1,333.44,289.88)" d="M0 0H82.08V22.19H0Z" fill="#e2efda" fill-rule="evenodd"/>
<path transform="matrix(1,0,0,1,415.4,289.88)" d="M0 0H82.08V22.19H0Z" fill="#e2efda" fill-rule="evenodd"/>
<path transform="matrix(1,0,0,1,497.36,289.88)" d="M0 0H81.12V22.19H0Z" fill="#e2efda" fill-rule="evenodd"/>
<path transform="matrix(1,0,0,1,60.440004,333.91999)" d="M0 0H99.12V22.08H0Z" fill="#e2efda" fill-rule="evenodd"/>
<path transform="matrix(1,0,0,1,159.44,333.91999)" d="M0 0H86.04V22.08H0Z" fill="#e2efda" fill-rule="evenodd"/>
<path transform="matrix(1,0,0,1,245.35999,333.91999)" d="M0 0H88.19V22.08H0Z" fill="#e2efda" fill-rule="evenodd"/>
<path transform="matrix(1,0,0,1,333.44,333.91999)" d="M0 0H82.08V22.08H0Z" fill="#e2efda" fill-rule="evenodd"/>
<path transform="matrix(1,0,0,1,415.4,333.91999)" d="M0 0H82.08V22.08H0Z" fill="#e2efda" fill-rule="evenodd"/>
<path transform="matrix(1,0,0,1,497.36,333.91999)" d="M0 0H81.12V22.08H0Z" fill="#e2efda" fill-rule="evenodd"/>
<path transform="matrix(1,0,0,1,60.440004,355.88)" d="M0 0H99.12V22.19H0Z" fill="#e2efda" fill-rule="evenodd"/>
<path transform="matrix(1,0,0,1,159.44,355.88)" d="M0 0H86.04V22.19H0Z" fill="#e2efda" fill-rule="evenodd"/>
<path transform="matrix(1,0,0,1,245.35999,355.88)" d="M0 0H88.19V22.19H0Z" fill="#e2efda" fill-rule="evenodd"/>
<path transform="matrix(1,0,0,1,333.44,355.88)" d="M0 0H82.08V22.19H0Z" fill="#e2efda" fill-rule="evenodd"/>
<path transform="matrix(1,0,0,1,415.4,355.88)" d="M0 0H82.08V22.19H0Z" fill="#e2efda" fill-rule="evenodd"/>
<path transform="matrix(1,0,0,1,497.36,355.88)" d="M0 0H81.12V22.19H0Z" fill="#e2efda" fill-rule="evenodd"/>
<path transform="matrix(1,0,0,1,60.440004,91.880008)" d="M0 0H99.12V22.19H0Z" fill="#a9d08e" fill-rule="evenodd"/>
<path transform="matrix(1,0,0,1,159.44,91.880008)" d="M0 0H86.04V22.19H0Z" fill="#a9d08e" fill-rule="evenodd"/>
<path transform="matrix(1,0,0,1,245.35999,91.880008)" d="M0 0H88.19V22.19H0Z" fill="#a9d08e" fill-rule="evenodd"/>
<path transform="matrix(1,0,0,1,333.44,91.880008)" d="M0 0H82.08V22.19H0Z" fill="#a9d08e" fill-rule="evenodd"/>
<path transform="matrix(1,0,0,1,415.4,91.880008)" d="M0 0H82.08V22.19H0Z" fill="#a9d08e" fill-rule="evenodd"/>
<path transform="matrix(1,0,0,1,497.36,91.880008)" d="M0 0H81.12V22.19H0Z" fill="#a9d08e" fill-rule="evenodd"/>
<path transform="matrix(1,0,0,1,60.440004,311.96)" d="M0 0H99.12V22.08H0Z" fill="#a9d08e" fill-rule="evenodd"/>
<path transform="matrix(1,0,0,1,159.44,311.96)" d="M0 0H86.04V22.08H0Z" fill="#a9d08e" fill-rule="evenodd"/>
<path transform="matrix(1,0,0,1,245.35999,311.96)" d="M0 0H88.19V22.08H0Z" fill="#a9d08e" fill-rule="evenodd"/>
<path transform="matrix(1,0,0,1,333.44,311.96)" d="M0 0H82.08V22.08H0Z" fill="#a9d08e" fill-rule="evenodd"/>
<path transform="matrix(1,0,0,1,415.4,311.96)" d="M0 0H82.08V22.08H0Z" fill="#a9d08e" fill-rule="evenodd"/>
<path transform="matrix(1,0,0,1,497.36,311.96)" d="M0 0H81.12V22.08H0Z" fill="#a9d08e" fill-rule="evenodd"/>
<path transform="matrix(1,0,0,1,60.440004,157.88)" d="M0 0H99.12V22.19H0Z" fill="#ffdccb" fill-rule="evenodd"/>
<path transform="matrix(1,0,0,1,159.44,157.88)" d="M0 0H86.04V22.19H0Z" fill="#ffdccb" fill-rule="evenodd"/>
<path transform="matrix(1,0,0,1,245.35999,157.88)" d="M0 0H88.19V22.19H0Z" fill="#ffdccb" fill-rule="evenodd"/>
<path transform="matrix(1,0,0,1,333.44,157.88)" d="M0 0H82.08V22.19H0Z" fill="#ffdccb" fill-rule="evenodd"/>
<path transform="matrix(1,0,0,1,415.4,157.88)" d="M0 0H82.08V22.19H0Z" fill="#ffdccb" fill-rule="evenodd"/>
<path transform="matrix(1,0,0,1,497.36,157.88)" d="M0 0H81.12V22.19H0Z" fill="#ffdccb" fill-rule="evenodd"/>
<path transform="matrix(1,0,0,1,60.440004,201.92)" d="M0 0H99.12V22.08H0Z" fill="#fce4d6" fill-rule="evenodd"/>
<path transform="matrix(1,0,0,1,159.44,201.92)" d="M0 0H86.04V22.08H0Z" fill="#fce4d6" fill-rule="evenodd"/>
<path transform="matrix(1,0,0,1,245.35999,201.92)" d="M0 0H88.19V22.08H0Z" fill="#fce4d6" fill-rule="evenodd"/>
<path transform="matrix(1,0,0,1,333.44,201.92)" d="M0 0H82.08V22.08H0Z" fill="#fce4d6" fill-rule="evenodd"/>
<path transform="matrix(1,0,0,1,415.4,201.92)" d="M0 0H82.08V22.08H0Z" fill="#fce4d6" fill-rule="evenodd"/>
<path transform="matrix(1,0,0,1,497.36,201.92)" d="M0 0H81.12V22.08H0Z" fill="#fce4d6" fill-rule="evenodd"/>
<path transform="matrix(1,0,0,1,60.440004,223.88)" d="M0 0H99.12V22.19H0Z" fill="#fce4d6" fill-rule="evenodd"/>
<path transform="matrix(1,0,0,1,159.44,223.88)" d="M0 0H86.04V22.19H0Z" fill="#fce4d6" fill-rule="evenodd"/>
<path transform="matrix(1,0,0,1,245.35999,223.88)" d="M0 0H88.19V22.19H0Z" fill="#fce4d6" fill-rule="evenodd"/>
<path transform="matrix(1,0,0,1,333.44,223.88)" d="M0 0H82.08V22.19H0Z" fill="#fce4d6" fill-rule="evenodd"/>
<path transform="matrix(1,0,0,1,415.4,223.88)" d="M0 0H82.08V22.19H0Z" fill="#fce4d6" fill-rule="evenodd"/>
<path transform="matrix(1,0,0,1,497.36,223.88)" d="M0 0H81.12V22.19H0Z" fill="#fce4d6" fill-rule="evenodd"/>
<path transform="matrix(1,0,0,1,60.440004,245.95999)" d="M0 0H99.12V22.08H0Z" fill="#fce4d6" fill-rule="evenodd"/>
<path transform="matrix(1,0,0,1,159.44,245.95999)" d="M0 0H86.04V22.08H0Z" fill="#fce4d6" fill-rule="evenodd"/>
<path transform="matrix(1,0,0,1,245.35999,245.95999)" d="M0 0H88.19V22.08H0Z" fill="#fce4d6" fill-rule="evenodd"/>
<path transform="matrix(1,0,0,1,333.44,245.95999)" d="M0 0H82.08V22.08H0Z" fill="#fce4d6" fill-rule="evenodd"/>
<path transform="matrix(1,0,0,1,415.4,245.95999)" d="M0 0H82.08V22.08H0Z" fill="#fce4d6" fill-rule="evenodd"/>
<path transform="matrix(1,0,0,1,497.36,245.95999)" d="M0 0H81.12V22.08H0Z" fill="#fce4d6" fill-rule="evenodd"/>
<path transform="matrix(1,0,0,1,60.440004,377.96)" d="M0 0H99.12V22.08H0Z" fill="#fce4d6" fill-rule="evenodd"/>
<path transform="matrix(1,0,0,1,159.44,377.96)" d="M0 0H86.04V22.08H0Z" fill="#fce4d6" fill-rule="evenodd"/>
<path transform="matrix(1,0,0,1,245.35999,377.96)" d="M0 0H88.19V22.08H0Z" fill="#fce4d6" fill-rule="evenodd"/>
<path transform="matrix(1,0,0,1,333.44,377.96)" d="M0 0H82.08V22.08H0Z" fill="#fce4d6" fill-rule="evenodd"/>
<path transform="matrix(1,0,0,1,415.4,377.96)" d="M0 0H82.08V22.08H0Z" fill="#fce4d6" fill-rule="evenodd"/>
<path transform="matrix(1,0,0,1,497.36,377.96)" d="M0 0H81.12V22.08H0Z" fill="#fce4d6" fill-rule="evenodd"/>
<text xml:space="preserve" transform="matrix(1 0 0 1 -49 542)" font-size="11" font-family="STSongti-SC" font-weight="bold"><tspan y="-524.84" x="147.85 159.05 240.35002 251.55002 321.7001 332.90013 344.10014 406.70014 417.90016 429.10017 488.6502 499.85023 511.05024 570.25027 581.45028 592.6503 657.25027 668.4503 679.6503">&#x8282;&#x6b21;&#x65f6;&#x95f4;&#x661f;&#x671f;&#x4e00;&#x661f;&#x671f;&#x4e8c;&#x661f;&#x671f;&#x4e09;&#x661f;&#x671f;&#x56db;&#x661f;&#x671f;&#x4e94;</tspan><tspan y="-424.39" x="68.75 79.950008">&#x4e0a;&#x5348;</tspan><tspan y="-501.44" x="111.1 122.3">&#x65e9;&#x8bfb;</tspan></text>
<text xml:space="preserve" transform="matrix(1 0 0 1 -49 542)" font-size="11" font-family="STSongti-SC" font-weight="bold"><tspan y="-524.84" x="147.85 159.05 240.35002 251.55002 321.7001 332.90013 344.10014 406.70014 417.90016 429.10017 488.6502 499.85023 511.05024 570.25027 581.45028 592.6503 657.25027 668.4503 679.6503">&#x8282;&#x6b21;&#x65f6;&#x95f4;&#x661f;&#x671f;&#x4e00;&#x661f;&#x671f;&#x4e8c;&#x661f;&#x671f;&#x4e09;&#x661f;&#x671f;&#x56db;&#x661f;&#x671f;&#x4e94;</tspan><tspan y="-424.39" x="68.75 79.950008">&#x4e0a;&#x5348;</tspan><tspan y="-501.44" x="111.1 122.3">&#x65e9;&#x8bfb;</tspan></text>
<text xml:space="preserve" transform="matrix(1 0 -0 1 -49 542)" font-size="11" font-family="TimesNewRomanPSMT"><tspan y="-501.54" x="210.1 215.75 218.5 221.75 224.5 230.1 235.8 238.55 242.15001 244.90001 250.55 253.3 256.55003 259.30003 264.90003">7 : 20 - 7 : 45</tspan></text>
<text xml:space="preserve" transform="matrix(1 0 -0 1 -49 542)" font-size="11" font-family="STSongti-SC"><tspan y="-501.44" x="296.15003 307.35005">&#x5347;&#x65d7;</tspan><tspan y="-325.39" x="662.75 673.9501">&#x6559;&#x7814;</tspan></text>
<text xml:space="preserve" transform="matrix(1 0 0 1 -49 542)" font-size="11" font-family="STSongti-SC" font-weight="bold"><tspan y="-479.34" x="111.1 122.3 133.5 144.7">&#x7b2c;&#x4e00;&#x8282;&#x8bfe;</tspan></text>
<text xml:space="preserve" transform="matrix(1 0 0 1 -49 542)" font-size="11" font-family="STSongti-SC" font-weight="bold"><tspan y="-479.34" x="111.1 122.3 133.5 144.7">&#x7b2c;&#x4e00;&#x8282;&#x8bfe;</tspan></text>
<text xml:space="preserve" transform="matrix(1 0 -0 1 -49 542)" font-size="11" font-family="TimesNewRomanPSMT"><tspan y="-479.59" x="210.1 215.75 218.5 221.75 224.5 230.1 235.8 238.55 242.15001 244.90001 250.55 253.3 256.55003 259.30003 264.90003">7 : 50 - 8 : 30</tspan></text>
<text xml:space="preserve" transform="matrix(1 0 0 1 -49 542)" font-size="11" font-family="STSongti-SC" font-weight="bold"><tspan y="-457.39" x="111.1 122.3 133.5 144.7">&#x7b2c;&#x4e8c;&#x8282;&#x8bfe;</tspan></text>
<text xml:space="preserve" transform="matrix(1 0 0 1 -49 542)" font-size="11" font-family="STSongti-SC" font-weight="bold"><tspan y="-457.39" x="111.1 122.3 133.5 144.7">&#x7b2c;&#x4e8c;&#x8282;&#x8bfe;</tspan></text>
<text xml:space="preserve" transform="matrix(1 0 -0 1 -49 542)" font-size="11" font-family="TimesNewRomanPSMT"><tspan y="-457.64" x="210.1 215.75 218.5 221.75 224.5 230.1 235.8 238.55 242.15001 244.90001 250.55 253.3 256.55003 259.30003 264.90003">8 : 40 - 9 : 20</tspan></text>
<text xml:space="preserve" transform="matrix(1 0 0 1 -49 542)" font-size="11" font-family="STSongti-SC" font-weight="bold"><tspan y="-435.44" x="111.1 122.3 133.5">&#x5927;&#x8bfe;&#x95f4;</tspan></text>
<text xml:space="preserve" transform="matrix(1 0 0 1 -49 542)" font-size="11" font-family="STSongti-SC" font-weight="bold"><tspan y="-435.44" x="111.1 122.3 133.5">&#x5927;&#x8bfe;&#x95f4;</tspan></text>
<text xml:space="preserve" transform="matrix(1 0 -0 1 -49 542)" font-size="11" font-family="TimesNewRomanPSMT"><tspan y="-435.54" x="210.1 215.75 218.5 221.75 224.5 230.1 235.8 238.55 242.15001 244.90001 250.55 253.3 256.55003 259.30003 264.90003">9 : 20 - 9 : 45</tspan></text>
<text xml:space="preserve" transform="matrix(1 0 0 1 -49 542)" font-size="11" font-family="STSongti-SC" font-weight="bold"><tspan y="-413.34" x="111.1 122.3 133.5 144.7">&#x7b2c;&#x4e09;&#x8282;&#x8bfe;</tspan></text>
<text xml:space="preserve" transform="matrix(1 0 0 1 -49 542)" font-size="11" font-family="STSongti-SC" font-weight="bold"><tspan y="-413.34" x="111.1 122.3 133.5 144.7">&#x7b2c;&#x4e09;&#x8282;&#x8bfe;</tspan></text>
<text xml:space="preserve" transform="matrix(1 0 -0 1 -49 542)" font-size="11" font-family="TimesNewRomanPSMT"><tspan y="-413.59" x="210.1 215.75 218.5 221.75 224.5 230.1 235.8 238.55 242.15001 244.90001 250.50002 256.2 258.94996 262.2 264.94996 270.55">9 : 45 - 10 : 25</tspan></text>
<text xml:space="preserve" transform="matrix(1 0 -0 1 -49 542)" font-size="11" font-family="STSongti-SC"><tspan y="-413.34" x="466.1 477.30003 488.50004 491.30003 496.55003 499.30003">&#x521d;&#x4e00; 1 &#x73ed;</tspan></text>
<text xml:space="preserve" transform="matrix(1 0 0 1 -49 542)" font-size="11" font-family="STSongti-SC" font-weight="bold"><tspan y="-391.39" x="111.1 122.3 133.5 144.7">&#x7b2c;&#x56db;&#x8282;&#x8bfe;</tspan></text>
<text xml:space="preserve" transform="matrix(1 0 0 1 -49 542)" font-size="11" font-family="STSongti-SC" font-weight="bold"><tspan y="-391.39" x="111.1 122.3 133.5 144.7">&#x7b2c;&#x56db;&#x8282;&#x8bfe;</tspan></text>
<text xml:space="preserve" transform="matrix(1 0 -0 1 -49 542)" font-size="11" font-family="TimesNewRomanPSMT"><tspan y="-391.64" x="210.1 215.70001 221.40001 224.15001 227.40001 230.15001 235.75003 241.3 244.2 247.8 250.55 256.15 261.7 264.59999 267.7 270.59999 276.2">10 : 35 - 11 : 15</tspan></text>
<text xml:space="preserve" transform="matrix(1 0 0 1 -49 542)" font-size="11" font-family="STSongti-SC" font-weight="bold"><tspan y="-369.44" x="111.1 122.3">&#x5348;&#x9910;</tspan></text>
<text xml:space="preserve" transform="matrix(1 0 0 1 -49 542)" font-size="11" font-family="STSongti-SC" font-weight="bold"><tspan y="-369.44" x="111.1 122.3">&#x5348;&#x9910;</tspan></text>
<text xml:space="preserve" transform="matrix(1 0 -0 1 -49 542)" font-size="11" font-family="TimesNewRomanPSMT"><tspan y="-369.54" x="210.1 215.70001 221.40001 224.15001 227.40001 230.15001 235.75003 241.3 244.2 247.8 250.55 256.15 261.7 264.59999 267.7 270.59999 276.2">11 : 15 - 11 : 50</tspan></text>
<text xml:space="preserve" transform="matrix(1 0 0 1 -49 542)" font-size="11" font-family="STSongti-SC" font-weight="bold"><tspan y="-347.34" x="111.1 122.3 133.5 144.7">&#x7b2c;&#x4e94;&#x8282;&#x8bfe;</tspan></text>
<text xml:space="preserve" transform="matrix(1 0 0 1 -49 542)" font-size="11" font-family="STSongti-SC" font-weight="bold"><tspan y="-347.34" x="111.1 122.3 133.5 144.7">&#x7b2c;&#x4e94;&#x8282;&#x8bfe;</tspan></text>
<text xml:space="preserve" transform="matrix(1 0 -0 1 -49 542)" font-size="11" font-family="TimesNewRomanPSMT"><tspan y="-347.59" x="210.1 215.70001 221.40001 224.15001 227.40001 230.15001 235.75003 241.3 244.2 247.8 250.55 256.15 261.7 264.59999 267.7 270.59999 276.2">11 : 50 - 12 : 30</tspan></text>
<text xml:space="preserve" transform="matrix(1 0 -0 1 -49 542)" font-size="11" font-family="STSongti-SC"><tspan y="-347.34" x="384.1 395.30003 406.55 409.3 414.6 417.34996 428.5 431.75 442.9">&#x521d;&#x4e8c; 3 &#x73ed;(&#x5355;)</tspan></text>
<text xml:space="preserve" transform="matrix(1 0 0 1 -49 542)" font-size="11" font-family="STSongti-SC" font-weight="bold"><tspan y="-325.39" x="111.1 122.3">&#x5348;&#x7ec3;</tspan></text>
<text xml:space="preserve" transform="matrix(1 0 0 1 -49 542)" font-size="11" font-family="STSongti-SC" font-weight="bold"><tspan y="-325.39" x="111.1 122.3">&#x5348;&#x7ec3;</tspan></text>
<text xml:space="preserve" transform="matrix(1 0 -0 1 -49 542)" font-size="11" font-family="TimesNewRomanPSMT"><tspan y="-325.64" x="210.1 215.70001 221.40001 224.15001 227.40001 230.15001 235.75003 241.3 244.2 247.8 250.55 256.15 261.7 264.59999 267.7 270.59999 276.2">12 : 40 - 13 : 00</tspan></text>
<text xml:space="preserve" transform="matrix(1 0 0 1 -49 542)" font-size="11" font-family="STSongti-SC" font-weight="bold"><tspan y="-303.44" x="111.1 122.3">&#x5348;&#x4f11;</tspan></text>
<text xml:space="preserve" transform="matrix(1 0 0 1 -49 542)" font-size="11" font-family="STSongti-SC" font-weight="bold"><tspan y="-303.44" x="111.1 122.3">&#x5348;&#x4f11;</tspan></text>
<text xml:space="preserve" transform="matrix(1 0 -0 1 -49 542)" font-size="11" font-family="TimesNewRomanPSMT"><tspan y="-303.54" x="210.1 215.70001 221.40001 224.15001 227.40001 230.15001 235.75003 241.3 244.2 247.8 250.55 256.15 261.7 264.59999 267.7 270.59999 276.2">13 : 00 - 13 : 40</tspan></text>
<text xml:space="preserve" transform="matrix(1 0 0 1 -49 542)" font-size="11" font-family="STSongti-SC" font-weight="bold"><tspan y="-281.34" x="111.1 122.3">&#x5348;&#x8bfb;</tspan></text>
<text xml:space="preserve" transform="matrix(1 0 0 1 -49 542)" font-size="11" font-family="STSongti-SC" font-weight="bold"><tspan y="-281.34" x="111.1 122.3">&#x5348;&#x8bfb;</tspan></text>
<text xml:space="preserve" transform="matrix(1 0 -0 1 -49 542)" font-size="11" font-family="TimesNewRomanPSMT"><tspan y="-281.59" x="210.1 215.70001 221.40001 224.15001 227.40001 230.15001 235.75003 241.3 244.2 247.8 250.55 256.15 261.7 264.59999 267.7 270.59999 276.2">13 : 45 - 14 : 00</tspan></text>
<text xml:space="preserve" transform="matrix(1 0 0 1 -49 542)" font-size="11" font-family="STSongti-SC" font-weight="bold"><tspan y="-204.44" x="68.75 79.950008">&#x4e0b;&#x5348;</tspan><tspan y="-259.39" x="111.1 122.3 133.5 144.7">&#x7b2c;&#x516d;&#x8282;&#x8bfe;</tspan></text>
<text xml:space="preserve" transform="matrix(1 0 0 1 -49 542)" font-size="11" font-family="STSongti-SC" font-weight="bold"><tspan y="-204.44" x="68.75 79.950008">&#x4e0b;&#x5348;</tspan><tspan y="-259.39" x="111.1 122.3 133.5 144.7">&#x7b2c;&#x516d;&#x8282;&#x8bfe;</tspan></text>
<text xml:space="preserve" transform="matrix(1 0 -0 1 -49 542)" font-size="11" font-family="TimesNewRomanPSMT"><tspan y="-259.64" x="210.1 215.70001 221.40001 224.15001 227.40001 230.15001 235.75003 241.3 244.2 247.8 250.55 256.15 261.7 264.59999 267.7 270.59999 276.2">14 : 10 - 14 : 50</tspan></text>
<text xml:space="preserve" transform="matrix(1 0 -0 1 -49 542)" font-size="11" font-family="STSongti-SC"><tspan y="-259.39" x="548.15 559.3501 570.5001 573.3501 578.5001 581.3001 592.5501 595.7001 606.9501">&#x521d;&#x4e8c; 2 &#x73ed;(&#x5355;)</tspan></text>
<text xml:space="preserve" transform="matrix(1 0 0 1 -49 542)" font-size="11" font-family="STSongti-SC" font-weight="bold"><tspan y="-237.44" x="111.1 122.3 133.5 144.7">&#x7b2c;&#x4e03;&#x8282;&#x8bfe;</tspan></text>
<text xml:space="preserve" transform="matrix(1 0 0 1 -49 542)" font-size="11" font-family="STSongti-SC" font-weight="bold"><tspan y="-237.44" x="111.1 122.3 133.5 144.7">&#x7b2c;&#x4e03;&#x8282;&#x8bfe;</tspan></text>
<text xml:space="preserve" transform="matrix(1 0 -0 1 -49 542)" font-size="11" font-family="TimesNewRomanPSMT"><tspan y="-237.54" x="210.1 215.70001 221.40001 224.15001 227.40001 230.15001 235.75003 241.3 244.2 247.8 250.55 256.15 261.7 264.59999 267.7 270.59999 276.2">15 : 00 - 15 : 40</tspan></text>
<text xml:space="preserve" transform="matrix(1 0 -0 1 -49 542)" font-size="11" font-family="STSongti-SC"><tspan y="-237.43997" x="296.15003 307.35005 318.50004 321.35 326.50004 329.30003">&#x521d;&#x4e00; 4 &#x73ed;</tspan></text>
<text xml:space="preserve" transform="matrix(1 0 0 1 -49 542)" font-size="11" font-family="STSongti-SC" font-weight="bold"><tspan y="-215.34" x="111.1 122.3 133.5 144.7">&#x773c;&#x4fdd;&#x5065;&#x64cd;</tspan></text>
<text xml:space="preserve" transform="matrix(1 0 0 1 -49 542)" font-size="11" font-family="STSongti-SC" font-weight="bold"><tspan y="-215.34" x="111.1 122.3 133.5 144.7">&#x773c;&#x4fdd;&#x5065;&#x64cd;</tspan></text>
<text xml:space="preserve" transform="matrix(1 0 -0 1 -49 542)" font-size="11" font-family="TimesNewRomanPSMT"><tspan y="-215.59" x="210.1 215.70001 221.40001 224.15001 227.40001 230.15001 235.75003 241.3 244.2 247.8 250.55 256.15 261.7 264.59999 267.7 270.59999 276.2">15 : 40 - 15 : 55</tspan></text>
<text xml:space="preserve" transform="matrix(1 0 0 1 -49 542)" font-size="11" font-family="STSongti-SC" font-weight="bold"><tspan y="-193.39" x="111.1 122.3 133.5 144.7">&#x7b2c;&#x516b;&#x8282;&#x8bfe;</tspan></text>
<text xml:space="preserve" transform="matrix(1 0 0 1 -49 542)" font-size="11" font-family="STSongti-SC" font-weight="bold"><tspan y="-193.39" x="111.1 122.3 133.5 144.7">&#x7b2c;&#x516b;&#x8282;&#x8bfe;</tspan></text>
<text xml:space="preserve" transform="matrix(1 0 -0 1 -49 542)" font-size="11" font-family="TimesNewRomanPSMT"><tspan y="-193.64" x="210.1 215.70001 221.40001 224.15001 227.40001 230.15001 235.75003 241.3 244.2 247.8 250.55 256.15 261.7 264.59999 267.7 270.59999 276.2">15 : 55 - 16 : 35</tspan></text>
<text xml:space="preserve" transform="matrix(1 0 -0 1 -49 542)" font-size="11" font-family="STSongti-SC"><tspan y="-193.39" x="296.15003 307.35005 318.50004 321.35 326.50004 329.30003 340.55003 343.70005 354.95 384.1 395.30003 406.55 409.3 414.6 417.34996 466.09999 477.3 488.5 491.3 496.55 499.3 548.1499 559.35 570.5 573.35 578.5 581.3 592.55 595.69998 606.94998">&#x521d;&#x4e8c; 1 &#x73ed;(&#x5355;)&#x521d;&#x4e00; 2 &#x73ed;&#x521d;&#x4e00; 3 &#x73ed;&#x521d;&#x4e8c; 4 &#x73ed;(&#x5355;)</tspan></text>
<text xml:space="preserve" transform="matrix(1 0 0 1 -49 542)" font-size="11" font-family="STSongti-SC" font-weight="bold"><tspan y="-171.44" x="111.1 122.3 133.5 144.7 156 159.10002 170.30002 181.55002 186.75">&#x7b2c;&#x4e5d;&#x8282;&#x8bfe;(&#x5ef6;&#x65f6;1)</tspan></text>
<text xml:space="preserve" transform="matrix(1 0 0 1 -49 542)" font-size="11" font-family="STSongti-SC" font-weight="bold"><tspan y="-171.44" x="111.1 122.3 133.5 144.7 156 159.10002 170.30002 181.55002 186.75">&#x7b2c;&#x4e5d;&#x8282;&#x8bfe;(&#x5ef6;&#x65f6;1)</tspan></text>
<text xml:space="preserve" transform="matrix(1 0 -0 1 -49 542)" font-size="11" font-family="TimesNewRomanPSMT"><tspan y="-171.54" x="210.1 215.70001 221.40001 224.15001 227.40001 230.15001 235.75003 241.3 244.2 247.8 250.55 256.15 261.7 264.59999 267.7 270.59999 276.2">16 : 55 - 17 : 35</tspan></text>
<text xml:space="preserve" transform="matrix(1 0 0 1 -49 542)" font-size="11" font-family="STSongti-SC" font-weight="bold"><tspan y="-149.34" x="111.1 122.3 133.5 144.7 156 159.10002 170.30002 181.55002 186.75">&#x7b2c;&#x5341;&#x8282;&#x8bfe;(&#x5ef6;&#x65f6;2)</tspan></text>
<text xml:space="preserve" transform="matrix(1 0 0 1 -49 542)" font-size="11" font-family="STSongti-SC" font-weight="bold"><tspan y="-149.34" x="111.1 122.3 133.5 144.7 156 159.10002 170.30002 181.55002 186.75">&#x7b2c;&#x5341;&#x8282;&#x8bfe;(&#x5ef6;&#x65f6;2)</tspan></text>
<text xml:space="preserve" transform="matrix(1 0 -0 1 -49 542)" font-size="11" font-family="TimesNewRomanPSMT"><tspan y="-149.59" x="210.1 215.70001 221.40001 224.15001 227.40001 230.15001 235.75003 241.3 244.2 247.8 250.55 256.15 261.7 264.59999 267.7 270.59999 276.2">17 : 40 - 18 : 20</tspan></text>
</g>
</g>
</g>
<g clip-path="url(#clip_4)">
<g clip-path="url(#clip_5)">
<path transform="matrix(1,0,0,1,.5600014,.07999802)" d="M0 0H670.96V.96H0Z" fill-rule="evenodd"/>
<path transform="matrix(1,0,0,1,.5600014,25.079995)" d="M0 0H670.96V.96H0Z" fill-rule="evenodd"/>
<path transform="matrix(1,0,0,1,59.559999,47.079996)" d="M0 0H518.96V.96H0Z" fill-rule="evenodd"/>
<path transform="matrix(1,0,0,1,59.559999,69.079998)" d="M0 0H518.96V.96H0Z" fill-rule="evenodd"/>
<path transform="matrix(1,0,0,1,59.559999,91.08)" d="M0 0H518.96V.96H0Z" fill-rule="evenodd"/>
<path transform="matrix(1,0,0,1,59.559999,113.08)" d="M0 0H518.96V.96H0Z" fill-rule="evenodd"/>
<path transform="matrix(1,0,0,1,59.559999,135.08)" d="M0 0H518.96V.96H0Z" fill-rule="evenodd"/>
<path transform="matrix(1,0,0,1,59.559999,157.08)" d="M0 0H518.96V.96H0Z" fill-rule="evenodd"/>
<path transform="matrix(1,0,0,1,59.559999,179.08)" d="M0 0H518.96V.96H0Z" fill-rule="evenodd"/>
<path transform="matrix(1,0,0,1,.5600014,201.08)" d="M0 0H577.96V.96H0Z" fill-rule="evenodd"/>
<path transform="matrix(1,0,0,1,59.559999,223.07999)" d="M0 0H518.96V.96H0Z" fill-rule="evenodd"/>
<path transform="matrix(1,0,0,1,59.559999,245.07999)" d="M0 0H518.96V.96H0Z" fill-rule="evenodd"/>
<path transform="matrix(1,0,0,1,.5600014,267.08)" d="M0 0H577.96V.96H0Z" fill-rule="evenodd"/>
<path transform="matrix(1,0,0,1,59.559999,289.08)" d="M0 0H518.96V.96H0Z" fill-rule="evenodd"/>
<path transform="matrix(1,0,0,1,59.559999,311.08)" d="M0 0H518.96V.96H0Z" fill-rule="evenodd"/>
<path transform="matrix(1,0,0,1,59.559999,333.08)" d="M0 0H518.96V.96H0Z" fill-rule="evenodd"/>
<path transform="matrix(1,0,0,1,59.559999,355.08)" d="M0 0H518.96V.96H0Z" fill-rule="evenodd"/>
<path transform="matrix(1,0,0,1,59.559999,377.08)" d="M0 0H518.96V.96H0Z" fill-rule="evenodd"/>
<path transform="matrix(1,0,0,1,.5600014,399.08)" d="M0 0H670.96V.96H0Z" fill-rule="evenodd"/>
<path transform="matrix(1,0,0,1,.5600014,.07999802)" d="M0 0H.96V399.96H0Z" fill-rule="evenodd"/>
<path transform="matrix(1,0,0,1,59.559999,.07999802)" d="M0 0H.96V399.96H0Z" fill-rule="evenodd"/>
<path transform="matrix(1,0,0,1,158.56,.07999802)" d="M0 0H.96V399.96H0Z" fill-rule="evenodd"/>
<path transform="matrix(1,0,0,1,244.56,.07999802)" d="M0 0H.96V399.96H0Z" fill-rule="evenodd"/>
<path transform="matrix(1,0,0,1,332.56,.07999802)" d="M0 0H.96V399.96H0Z" fill-rule="evenodd"/>
<path transform="matrix(1,0,0,1,414.56,.07999802)" d="M0 0H.96V399.96H0Z" fill-rule="evenodd"/>
<path transform="matrix(1,0,0,1,496.56,.07999802)" d="M0 0H.96V399.96H0Z" fill-rule="evenodd"/>
<path transform="matrix(1,0,0,1,577.56,.07999802)" d="M0 0H.96V399.96H0Z" fill-rule="evenodd"/>
<path transform="matrix(1,0,0,1,670.56,.07999802)" d="M0 0H.96V399.96H0Z" fill-rule="evenodd"/>
</g>
</g>
</g>
</svg>
