<svg xmlns="http://www.w3.org/2000/svg" xmlns:xlink="http://www.w3.org/1999/xlink" version="1.1" width="692pt" height="360pt" viewBox="0 0 692 360">
<defs>
<clipPath id="clip_0">
<path transform="matrix(1,0,0,-1,0,360)" d="M0 0H692V360H0Z"/>
</clipPath>
<clipPath id="clip_1">
<path transform="matrix(1,0,0,-1,-50,542)" d="M51.36 182.69H741.1V540.24H51.36Z" fill-rule="evenodd"/>
</clipPath>
<clipPath id="clip_2">
<path transform="matrix(1,0,0,-1,-50,542)" d="M51.36 360.31H111.984V517.77H51.36Z" fill-rule="evenodd"/>
</clipPath>
<clipPath id="clip_3">
<path transform="matrix(1,0,0,-1,-50,542)" d="M51.36 183.17H111.984V301.27H51.36Z" fill-rule="evenodd"/>
</clipPath>
<clipPath id="clip_4">
<path transform="matrix(1,0,0,-1,-50,542)" d="M644.62 360.31H740.62V517.77H644.62Z" fill-rule="evenodd"/>
</clipPath>
<clipPath id="clip_5">
<path transform="matrix(1,0,0,-1,-50,542)" d="M49.44 180.65H743.14V542.16006H49.44Z" fill-rule="evenodd"/>
</clipPath>
</defs>
<g>
<g>
<g clip-path="url(#clip_0)">
<path transform="matrix(1,0,0,-1,0,360)" d="M0 0H692V360H0Z" fill="#303030"/>
</g>
</g>
<g clip-path="url(#clip_1)">
<path transform="matrix(1,0,0,-1,.88000109,24.340027)" d="M0 0H689.86V23.06H0Z" fill="#b4c6e7" fill-rule="evenodd"/>
<path transform="matrix(1,0,0,-1,.88000109,44.01999)" d="M0 0H61.22V19.79H0Z" fill="#e7e6e6" fill-rule="evenodd"/>
<path transform="matrix(1,0,0,-1,61.980005,44.01999)" d="M0 0H628.75V19.79H0Z" fill="#d9e1f2" fill-rule="evenodd"/>
<path transform="matrix(1,0,0,-1,.88000109,83.380008)" d="M0 0H61.22V39.48H0Z" fill="#e7e6e6" fill-rule="evenodd"/>
<path transform="matrix(1,0,0,-1,61.980005,83.380008)" d="M0 0H532.75V39.48H0Z" fill="#e2efda" fill-rule="evenodd"/>
<path transform="matrix(1,0,0,-1,594.62,83.380008)" d="M0 0H96.12V39.48H0Z" fill="#d9e1f2" fill-rule="evenodd"/>
<path transform="matrix(1,0,0,-1,.88000109,103.06)" d="M0 0H61.22V19.79H0Z" fill="#e7e6e6" fill-rule="evenodd"/>
<path transform="matrix(1,0,0,-1,61.980005,103.06)" d="M0 0H532.75V19.79H0Z" fill="#a9d08e" fill-rule="evenodd"/>
<path transform="matrix(1,0,0,-1,594.62,103.06)" d="M0 0H96.12V19.79H0Z" fill="#d9e1f2" fill-rule="evenodd"/>
<path transform="matrix(1,0,0,-1,.88000109,142.45001)" d="M0 0H61.22V39.49H0Z" fill="#e7e6e6" fill-rule="evenodd"/>
<path transform="matrix(1,0,0,-1,61.980005,142.45001)" d="M0 0H532.75V39.49H0Z" fill="#e2efda" fill-rule="evenodd"/>
<path transform="matrix(1,0,0,-1,594.62,142.45001)" d="M0 0H96.12V39.49H0Z" fill="#d9e1f2" fill-rule="evenodd"/>
<path transform="matrix(1,0,0,-1,.88000109,162.13)" d="M0 0H61.22V19.79H0Z" fill="#e7e6e6" fill-rule="evenodd"/>
<path transform="matrix(1,0,0,-1,61.980005,162.13)" d="M0 0H532.75V19.79H0Z" fill="#ffdccb" fill-rule="evenodd"/>
<path transform="matrix(1,0,0,-1,594.62,162.13)" d="M0 0H96.12V19.79H0Z" fill="#d9e1f2" fill-rule="evenodd"/>
<path transform="matrix(1,0,0,-1,.88000109,181.81)" d="M0 0H61.22V19.79H0Z" fill="#e7e6e6" fill-rule="evenodd"/>
<path transform="matrix(1,0,0,-1,61.980005,181.81)" d="M0 0H532.75V19.79H0Z" fill="#e2efda" fill-rule="evenodd"/>
<path transform="matrix(1,0,0,-1,594.62,181.81)" d="M0 0H96.12V19.79H0Z" fill="#d9e1f2" fill-rule="evenodd"/>
<path transform="matrix(1,0,0,-1,.88000109,240.85)" d="M0 0H61.22V59.16H0Z" fill="#e7e6e6" fill-rule="evenodd"/>
<path transform="matrix(1,0,0,-1,61.980005,240.85)" d="M0 0H628.75V59.16H0Z" fill="#fce4d6" fill-rule="evenodd"/>
<path transform="matrix(1,0,0,-1,.88000109,280.23)" d="M0 0H61.22V39.49H0Z" fill="#e7e6e6" fill-rule="evenodd"/>
<path transform="matrix(1,0,0,-1,61.980005,280.23)" d="M0 0H628.75V39.49H0Z" fill="#e2efda" fill-rule="evenodd"/>
<path transform="matrix(1,0,0,-1,.88000109,299.91)" d="M0 0H61.22V19.79H0Z" fill="#e7e6e6" fill-rule="evenodd"/>
<path transform="matrix(1,0,0,-1,61.980005,299.91)" d="M0 0H628.75V19.79H0Z" fill="#a9d08e" fill-rule="evenodd"/>
<path transform="matrix(1,0,0,-1,.88000109,339.27003)" d="M0 0H61.22V39.48H0Z" fill="#e7e6e6" fill-rule="evenodd"/>
<path transform="matrix(1,0,0,-1,61.980005,339.27003)" d="M0 0H628.75V39.48H0Z" fill="#e2efda" fill-rule="evenodd"/>
<path transform="matrix(1,0,0,-1,.88000109,358.95)" d="M0 0H61.22V19.79H0Z" fill="#e7e6e6" fill-rule="evenodd"/>
<path transform="matrix(1,0,0,-1,61.980005,358.95)" d="M0 0H628.75V19.79H0Z" fill="#fce4d6" fill-rule="evenodd"/>
<text xml:space="preserve" transform="matrix(1 0 -0 1 -50 542)" font-size="11.04" font-family="SimSun"><tspan y="-524.5" x="152.3 163.46">&#x8282;&#x6b21;</tspan></text>
<text xml:space="preserve" transform="matrix(1 0 -0 1 -50 542)" font-size="11.04" font-family="SimSun"><tspan y="-524.5" x="152.3 163.46">&#x8282;&#x6b21;</tspan></text>
<text xml:space="preserve" transform="matrix(1 0 -0 1 -50 542)" font-size="11.04" font-family="SimSun"><tspan y="-524.5" x="247.7 258.86">&#x65f6;&#x95f4;</tspan></text>
<text xml:space="preserve" transform="matrix(1 0 -0 1 -50 542)" font-size="11.04" font-family="SimSun"><tspan y="-524.5" x="247.7 258.86">&#x65f6;&#x95f4;</tspan></text>
<text xml:space="preserve" transform="matrix(1 0 -0 1 -50 542)" font-size="11.04" font-family="SimSun"><tspan y="-524.5" x="331.61 342.77 353.93">&#x661f;&#x671f;&#x4e00;</tspan></text>
<text xml:space="preserve" transform="matrix(1 0 -0 1 -50 542)" font-size="11.04" font-family="SimSun"><tspan y="-524.5" x="331.61 342.77 353.93">&#x661f;&#x671f;&#x4e00;</tspan></text>
<text xml:space="preserve" transform="matrix(1 0 -0 1 -50 542)" font-size="11.04" font-family="SimSun"><tspan y="-524.5" x="418.85 430.01 441.17">&#x661f;&#x671f;&#x4e8c;</tspan></text>
<text xml:space="preserve" transform="matrix(1 0 -0 1 -50 542)" font-size="11.04" font-family="SimSun"><tspan y="-524.5" x="418.85 430.01 441.17">&#x661f;&#x671f;&#x4e8c;</tspan></text>
<text xml:space="preserve" transform="matrix(1 0 -0 1 -50 542)" font-size="11.04" font-family="SimSun"><tspan y="-524.5" x="502.99 514.14999 525.30996">&#x661f;&#x671f;&#x4e09;</tspan></text>
<text xml:space="preserve" transform="matrix(1 0 -0 1 -50 542)" font-size="11.04" font-family="SimSun"><tspan y="-524.5" x="502.99 514.14999 525.30996">&#x661f;&#x671f;&#x4e09;</tspan></text>
<text xml:space="preserve" transform="matrix(1 0 -0 1 -50 542)" font-size="11.04" font-family="SimSun"><tspan y="-524.5" x="586.63 597.79 608.94998">&#x661f;&#x671f;&#x56db;</tspan></text>
<text xml:space="preserve" transform="matrix(1 0 -0 1 -50 542)" font-size="11.04" font-family="SimSun"><tspan y="-524.5" x="586.63 597.79 608.94998">&#x661f;&#x671f;&#x56db;</tspan></text>
<text xml:space="preserve" transform="matrix(1 0 -0 1 -50 542)" font-size="11.04" font-family="SimSun"><tspan y="-524.5" x="676.3 687.45999 698.61996">&#x661f;&#x671f;&#x4e94;</tspan></text>
<text xml:space="preserve" transform="matrix(1 0 -0 1 -50 542)" font-size="11.04" font-family="SimSun"><tspan y="-524.5" x="676.3 687.45999 698.61996">&#x661f;&#x671f;&#x4e94;</tspan></text>
<text xml:space="preserve" transform="matrix(1 0 -0 1 -50 542)" font-size="11.04" font-family="SimSun"><tspan y="-503.26" x="113.9 125.06">&#x65e9;&#x8bfb;</tspan></text>
<text xml:space="preserve" transform="matrix(1 0 -0 1 -50 542)" font-size="11.04" font-family="SimSun"><tspan y="-503.26" x="113.9 125.06">&#x65e9;&#x8bfb;</tspan></text>
<text xml:space="preserve" transform="matrix(1 0 -0 1 -50 542)" font-size="11.04" font-family="TimesNewRomanPSMT"><tspan y="-504.1" x="216.02 221.54001 224.3 227.41329 230.17328 235.69329 241.21329 243.97328 247.45088 250.21088 255.73088 258.49089 261.60417 264.36418 269.88417">7 : 20 - 7 : 45</tspan></text>
<text xml:space="preserve" transform="matrix(1 0 -0 1 -50 542)" font-size="11.04" font-family="SimSun"><tspan y="-503.26" x="304.73 315.77003">&#x5347;&#x65d7;</tspan></text>
<text xml:space="preserve" transform="matrix(1 0 -0 1 -50 542)" font-size="11.04" font-family="SimSun"><tspan y="-483.58" x="113.9 125.06 136.22 147.38">&#x7b2c;&#x4e00;&#x8282;&#x8bfe;</tspan></text>
<text xml:space="preserve" transform="matrix(1 0 -0 1 -50 542)" font-size="11.04" font-family="SimSun"><tspan y="-483.58" x="113.9 125.06 136.22 147.38">&#x7b2c;&#x4e00;&#x8282;&#x8bfe;</tspan></text>
<text xml:space="preserve" transform="matrix(1 0 -0 1 -50 542)" font-size="11.04" font-family="TimesNewRomanPSMT"><tspan y="-484.42" x="216.02 221.54001 224.3 227.41329 230.17328 235.69329 241.21329 243.97328 247.45088 250.21088 255.73088 258.49089 261.60417 264.36418 269.88417">7 : 50 - 8 : 30</tspan></text>
<text xml:space="preserve" transform="matrix(1 0 -0 1 -50 542)" font-size="11.04" font-family="SimSun"><tspan y="-463.9" x="113.9 125.06 136.22 147.38">&#x7b2c;&#x4e8c;&#x8282;&#x8bfe;</tspan></text>
<text xml:space="preserve" transform="matrix(1 0 -0 1 -50 542)" font-size="11.04" font-family="SimSun"><tspan y="-463.9" x="113.9 125.06 136.22 147.38">&#x7b2c;&#x4e8c;&#x8282;&#x8bfe;</tspan></text>
<text xml:space="preserve" transform="matrix(1 0 -0 1 -50 542)" font-size="11.04" font-family="TimesNewRomanPSMT"><tspan y="-464.74" x="216.02 221.54001 224.3 227.41329 230.17328 235.69329 241.21329 243.97328 247.45088 250.21088 255.73088 258.49089 261.60417 264.36418 269.88417">8 : 40 - 9 : 20</tspan></text>
<text xml:space="preserve" transform="matrix(1 0 -0 1 -50 542)" font-size="11.04" font-family="SimSun"><tspan y="-444.22" x="113.9 125.06 136.22">&#x5927;&#x8bfe;&#x95f4;</tspan></text>
<text xml:space="preserve" transform="matrix(1 0 -0 1 -50 542)" font-size="11.04" font-family="SimSun"><tspan y="-444.22" x="113.9 125.06 136.22">&#x5927;&#x8bfe;&#x95f4;</tspan></text>
<text xml:space="preserve" transform="matrix(1 0 -0 1 -50 542)" font-size="11.04" font-family="TimesNewRomanPSMT"><tspan y="-445.06" x="216.02 221.54001 224.3 227.41329 230.17328 235.69329 241.21329 243.97328 247.45088 250.21088 255.73088 258.49089 261.60417 264.36418 269.88417">9 : 20 - 9 : 45</tspan></text>
<text xml:space="preserve" transform="matrix(1 0 -0 1 -50 542)" font-size="11.04" font-family="SimSun"><tspan y="-424.54" x="113.9 125.06 136.22 147.38">&#x7b2c;&#x4e09;&#x8282;&#x8bfe;</tspan></text>
<text xml:space="preserve" transform="matrix(1 0 -0 1 -50 542)" font-size="11.04" font-family="SimSun"><tspan y="-424.54" x="113.9 125.06 136.22 147.38">&#x7b2c;&#x4e09;&#x8282;&#x8bfe;</tspan></text>
<text xml:space="preserve" transform="matrix(1 0 -0 1 -50 542)" font-size="11.04" font-family="TimesNewRomanPSMT"><tspan y="-425.38" x="216.02 221.54001 224.3 227.41329 230.17328 235.69329 241.21329 243.97328 247.45088 250.21088 255.73088 261.2509 264.0109 267.12419 269.8842 275.40419">9 : 45 - 10 : 25</tspan></text>
<text xml:space="preserve" transform="matrix(1 0 -0 1 -50 542)" font-size="11.04" font-family="SimSun"><tspan y="-404.83" x="113.9 125.06 136.22 147.38">&#x7b2c;&#x56db;&#x8282;&#x8bfe;</tspan></text>
<text xml:space="preserve" transform="matrix(1 0 -0 1 -50 542)" font-size="11.04" font-family="SimSun"><tspan y="-404.83" x="113.9 125.06 136.22 147.38">&#x7b2c;&#x56db;&#x8282;&#x8bfe;</tspan></text>
<text xml:space="preserve" transform="matrix(1 0 -0 1 -50 542)" font-size="11.04" font-family="TimesNewRomanPSMT"><tspan y="-405.67" x="216.02 221.54001 227.06002 229.82 232.93329 235.69329 241.21329 246.73329 249.49329 252.97089 255.73088 261.2509 266.77088 269.53089 272.64418 275.40419 280.92417">10 : 35 - 11 : 15</tspan></text>
<text xml:space="preserve" transform="matrix(1 0 -0 1 -50 542)" font-size="11.04" font-family="SimSun"><tspan y="-385.15" x="113.9 125.06">&#x5348;&#x9910;</tspan></text>
<text xml:space="preserve" transform="matrix(1 0 -0 1 -50 542)" font-size="11.04" font-family="SimSun"><tspan y="-385.15" x="113.9 125.06">&#x5348;&#x9910;</tspan></text>
<text xml:space="preserve" transform="matrix(1 0 -0 1 -50 542)" font-size="11.04" font-family="TimesNewRomanPSMT"><tspan y="-385.99" x="216.02 221.54001 227.06002 229.82 232.93329 235.69329 241.21329 246.73329 249.49329 252.97089 255.73088 261.2509 266.77088 269.53089 272.64418 275.40419 280.92417">11 : 15 - 11 : 50</tspan></text>
<text xml:space="preserve" transform="matrix(1 0 -0 1 -50 542)" font-size="11.04" font-family="SimSun"><tspan y="-365.47" x="113.9 125.06 136.22 147.38">&#x7b2c;&#x4e94;&#x8282;&#x8bfe;</tspan></text>
<text xml:space="preserve" transform="matrix(1 0 -0 1 -50 542)" font-size="11.04" font-family="SimSun"><tspan y="-365.47" x="113.9 125.06 136.22 147.38">&#x7b2c;&#x4e94;&#x8282;&#x8bfe;</tspan></text>
<text xml:space="preserve" transform="matrix(1 0 -0 1 -50 542)" font-size="11.04" font-family="TimesNewRomanPSMT"><tspan y="-366.31" x="216.02 221.54001 227.06002 229.82 232.93329 235.69329 241.21329 246.73329 249.49329 252.97089 255.73088 261.2509 266.77088 269.53089 272.64418 275.40419 280.92417">11 : 50 - 12 : 30</tspan></text>
<text xml:space="preserve" transform="matrix(1 0 -0 1 -50 542)" font-size="11.04" font-family="SimSun"><tspan y="-365.47" x="394.97 406.01 417.05003 422.57 428.09 433.61 444.65 450.16999 461.21">&#x521d;&#x4e8c; 3 &#x73ed;(&#x5355;)</tspan></text>
<text xml:space="preserve" transform="matrix(1 0 -0 1 -50 542)" font-size="11.04" font-family="SimSun"><tspan y="-345.79" x="113.9 125.06">&#x5348;&#x7ec3;</tspan></text>
<text xml:space="preserve" transform="matrix(1 0 -0 1 -50 542)" font-size="11.04" font-family="SimSun"><tspan y="-345.79" x="113.9 125.06">&#x5348;&#x7ec3;</tspan></text>
<text xml:space="preserve" transform="matrix(1 0 -0 1 -50 542)" font-size="11.04" font-family="TimesNewRomanPSMT"><tspan y="-346.63" x="216.02 221.54001 227.06002 229.82 232.93329 235.69329 241.21329 246.73329 249.49329 252.97089 255.73088 261.2509 266.77088 269.53089 272.64418 275.40419 280.92417">12 : 40 - 13 : 00</tspan></text>
<text xml:space="preserve" transform="matrix(1 0 -0 1 -50 542)" font-size="11.04" font-family="SimSun"><tspan y="-326.11" x="113.9 125.06">&#x5348;&#x4f11;</tspan></text>
<text xml:space="preserve" transform="matrix(1 0 -0 1 -50 542)" font-size="11.04" font-family="SimSun"><tspan y="-326.11" x="113.9 125.06">&#x5348;&#x4f11;</tspan></text>
<text xml:space="preserve" transform="matrix(1 0 -0 1 -50 542)" font-size="11.04" font-family="TimesNewRomanPSMT"><tspan y="-326.95" x="216.02 221.54001 227.06002 229.82 232.93329 235.69329 241.21329 246.73329 249.49329 252.97089 255.73088 261.2509 266.77088 269.53089 272.64418 275.40419 280.92417">13 : 00 - 13 : 40</tspan></text>
<text xml:space="preserve" transform="matrix(1 0 -0 1 -50 542)" font-size="11.04" font-family="SimSun"><tspan y="-306.43" x="113.9 125.06">&#x5348;&#x8bfb;</tspan></text>
<text xml:space="preserve" transform="matrix(1 0 -0 1 -50 542)" font-size="11.04" font-family="SimSun"><tspan y="-306.43" x="113.9 125.06">&#x5348;&#x8bfb;</tspan></text>
<text xml:space="preserve" transform="matrix(1 0 -0 1 -50 542)" font-size="11.04" font-family="TimesNewRomanPSMT"><tspan y="-307.27" x="216.02 221.54001 227.06002 229.82 232.93329 235.69329 241.21329 246.73329 249.49329 252.97089 255.73088 261.2509 266.77088 269.53089 272.64418 275.40419 280.92417">13 : 45 - 14 : 00</tspan></text>
<text xml:space="preserve" transform="matrix(1 0 -0 1 -50 542)" font-size="11.04" font-family="SimSun"><tspan y="-286.75" x="113.9 125.06 136.22 147.38">&#x7b2c;&#x516d;&#x8282;&#x8bfe;</tspan></text>
<text xml:space="preserve" transform="matrix(1 0 -0 1 -50 542)" font-size="11.04" font-family="SimSun"><tspan y="-286.75" x="113.9 125.06 136.22 147.38">&#x7b2c;&#x516d;&#x8282;&#x8bfe;</tspan></text>
<text xml:space="preserve" transform="matrix(1 0 -0 1 -50 542)" font-size="11.04" font-family="TimesNewRomanPSMT"><tspan y="-287.59" x="216.02 221.54001 227.06002 229.82 232.93329 235.69329 241.21329 246.73329 249.49329 252.97089 255.73088 261.2509 266.77088 269.53089 272.64418 275.40419 280.92417">14 : 10 - 14 : 50</tspan></text>
<text xml:space="preserve" transform="matrix(1 0 -0 1 -50 542)" font-size="11.04" font-family="SimSun"><tspan y="-286.75" x="563.23 574.26998 585.30996 590.82998 596.35 601.87">&#x521d;&#x4e00; 1 &#x73ed;</tspan></text>
<text xml:space="preserve" transform="matrix(1 0 -0 1 -50 542)" font-size="11.04" font-family="SimSun"><tspan y="-267.05" x="113.9 125.06 136.22 147.38">&#x7b2c;&#x4e03;&#x8282;&#x8bfe;</tspan></text>
<text xml:space="preserve" transform="matrix(1 0 -0 1 -50 542)" font-size="11.04" font-family="SimSun"><tspan y="-267.05" x="113.9 125.06 136.22 147.38">&#x7b2c;&#x4e03;&#x8282;&#x8bfe;</tspan></text>
<text xml:space="preserve" transform="matrix(1 0 -0 1 -50 542)" font-size="11.04" font-family="TimesNewRomanPSMT"><tspan y="-267.89" x="216.02 221.54001 227.06002 229.82 232.93329 235.69329 241.21329 246.73329 249.49329 252.97089 255.73088 261.2509 266.77088 269.53089 272.64418 275.40419 280.92417">15 : 00 - 15 : 40</tspan></text>
<text xml:space="preserve" transform="matrix(1 0 -0 1 -50 542)" font-size="11.04" font-family="SimSun"><tspan y="-267.05" x="304.73 315.77003 326.81004 332.33003 337.85 343.37">&#x521d;&#x4e00; 4 &#x73ed;</tspan></text>
<text xml:space="preserve" transform="matrix(1 0 -0 1 -50 542)" font-size="11.04" font-family="SimSun"><tspan y="-267.05" x="563.23 574.26998 585.30996 590.82998 596.35 601.87 612.91 618.43 629.47">&#x521d;&#x4e8c; 2 &#x73ed;(&#x5355;)</tspan></text>
<text xml:space="preserve" transform="matrix(1 0 -0 1 -50 542)" font-size="11.04" font-family="SimSun"><tspan y="-247.37" x="113.9 125.06 136.22 147.38">&#x773c;&#x4fdd;&#x5065;&#x64cd;</tspan></text>
<text xml:space="preserve" transform="matrix(1 0 -0 1 -50 542)" font-size="11.04" font-family="SimSun"><tspan y="-247.37" x="113.9 125.06 136.22 147.38">&#x773c;&#x4fdd;&#x5065;&#x64cd;</tspan></text>
<text xml:space="preserve" transform="matrix(1 0 -0 1 -50 542)" font-size="11.04" font-family="TimesNewRomanPSMT"><tspan y="-248.21" x="216.02 221.54001 227.06002 229.82 232.93329 235.69329 241.21329 246.73329 249.49329 252.97089 255.73088 261.2509 266.77088 269.53089 272.64418 275.40419 280.92417">15 : 40 - 15 : 55</tspan></text>
<text xml:space="preserve" transform="matrix(1 0 -0 1 -50 542)" font-size="11.04" font-family="SimSun"><tspan y="-227.69" x="113.9 125.06 136.22 147.38">&#x7b2c;&#x516b;&#x8282;&#x8bfe;</tspan></text>
<text xml:space="preserve" transform="matrix(1 0 -0 1 -50 542)" font-size="11.04" font-family="SimSun"><tspan y="-227.69" x="113.9 125.06 136.22 147.38">&#x7b2c;&#x516b;&#x8282;&#x8bfe;</tspan></text>
<text xml:space="preserve" transform="matrix(1 0 -0 1 -50 542)" font-size="11.04" font-family="TimesNewRomanPSMT"><tspan y="-228.53" x="216.02 221.54001 227.06002 229.82 232.93329 235.69329 241.21329 246.73329 249.49329 252.97089 255.73088 261.2509 266.77088 269.53089 272.64418 275.40419 280.92417">15 : 55 - 16 : 35</tspan></text>
<text xml:space="preserve" transform="matrix(1 0 -0 1 -50 542)" font-size="11.04" font-family="SimSun"><tspan y="-227.69" x="304.73 315.77003 326.81004 332.33003 337.85 343.37 354.41 359.93 370.97">&#x521d;&#x4e8c; 1 &#x73ed;(&#x5355;)</tspan></text>
<text xml:space="preserve" transform="matrix(1 0 -0 1 -50 542)" font-size="11.04" font-family="SimSun"><tspan y="-227.69" x="394.97 406.01 417.05003 422.57 428.09 433.61">&#x521d;&#x4e00; 2 &#x73ed;</tspan></text>
<text xml:space="preserve" transform="matrix(1 0 -0 1 -50 542)" font-size="11.04" font-family="SimSun"><tspan y="-227.69" x="479.11 490.15 501.19 506.71 512.23 517.75">&#x521d;&#x4e00; 3 &#x73ed;</tspan></text>
<text xml:space="preserve" transform="matrix(1 0 -0 1 -50 542)" font-size="11.04" font-family="SimSun"><tspan y="-227.69" x="563.23 574.26998 585.30996 590.82998 596.35 601.87 612.91 618.43 629.47">&#x521d;&#x4e8c; 4 &#x73ed;(&#x5355;)</tspan></text>
<text xml:space="preserve" transform="matrix(1 0 -0 1 -50 542)" font-size="11.04" font-family="SimSun"><tspan y="-208.01" x="113.9 125.06 136.22 147.38 158.54001 164.18001 175.34001 186.50002 192.14002">&#x7b2c;&#x4e5d;&#x8282;&#x8bfe;(&#x5ef6;&#x65f6;1)</tspan></text>
<text xml:space="preserve" transform="matrix(1 0 -0 1 -50 542)" font-size="11.04" font-family="SimSun"><tspan y="-208.01" x="113.9 125.06 136.22 147.38 158.54001 164.18001 175.34001 186.50002 192.14002">&#x7b2c;&#x4e5d;&#x8282;&#x8bfe;(&#x5ef6;&#x65f6;1)</tspan></text>
<text xml:space="preserve" transform="matrix(1 0 -0 1 -50 542)" font-size="11.04" font-family="TimesNewRomanPSMT"><tspan y="-208.85" x="216.02 221.54001 227.06002 229.82 232.93329 235.69329 241.21329 246.73329 249.49329 252.97089 255.73088 261.2509 266.77088 269.53089 272.64418 275.40419 280.92417">16 : 55 - 17 : 35</tspan></text>
<text xml:space="preserve" transform="matrix(1 0 -0 1 -50 542)" font-size="11.04" font-family="SimSun"><tspan y="-188.33" x="113.9 125.06 136.22 147.38 158.54001 164.18001 175.34001 186.50002 192.14002">&#x7b2c;&#x5341;&#x8282;&#x8bfe;(&#x5ef6;&#x65f6;2)</tspan></text>
<text xml:space="preserve" transform="matrix(1 0 -0 1 -50 542)" font-size="11.04" font-family="SimSun"><tspan y="-188.33" x="113.9 125.06 136.22 147.38 158.54001 164.18001 175.34001 186.50002 192.14002">&#x7b2c;&#x5341;&#x8282;&#x8bfe;(&#x5ef6;&#x65f6;2)</tspan></text>
<text xml:space="preserve" transform="matrix(1 0 -0 1 -50 542)" font-size="11.04" font-family="TimesNewRomanPSMT"><tspan y="-189.17" x="216.02 221.54001 227.06002 229.82 232.93329 235.69329 241.21329 246.73329 249.49329 252.97089 255.73088 261.2509 266.77088 269.53089 272.64418 275.40419 280.92417">17 : 40 - 18 : 20</tspan></text>
</g>
<g clip-path="url(#clip_2)">
<text xml:space="preserve" transform="matrix(1 0 -0 1 -50 542)" font-size="11.04" font-family="SimSun"><tspan y="-434.86" x="70.68 81.84">&#x4e0a;&#x5348;</tspan></text>
<text xml:space="preserve" transform="matrix(1 0 -0 1 -50 542)" font-size="11.04" font-family="SimSun"><tspan y="-434.86" x="70.68 81.84">&#x4e0a;&#x5348;</tspan></text>
</g>
<g clip-path="url(#clip_3)">
<text xml:space="preserve" transform="matrix(1 0 -0 1 -50 542)" font-size="11.04" font-family="SimSun"><tspan y="-238.01" x="70.68 81.84">&#x4e0b;&#x5348;</tspan></text>
<text xml:space="preserve" transform="matrix(1 0 -0 1 -50 542)" font-size="11.04" font-family="SimSun"><tspan y="-238.01" x="70.68 81.84">&#x4e0b;&#x5348;</tspan></text>
</g>
<g clip-path="url(#clip_4)">
<text xml:space="preserve" transform="matrix(1 0 -0 1 -50 542)" font-size="11.04" font-family="SimSun"><tspan y="-434.86" x="682.06 693.1">&#x6559;&#x7814;</tspan></text>
</g>
<g clip-path="url(#clip_5)">
<path transform="matrix(1,0,0,-1,.45999909,.85998538)" stroke-width=".14" stroke-linecap="square" stroke-linejoin="round" fill="none" stroke="#000000" d="M0 0V-358.39"/>
<path transform="matrix(1,0,0,-1,.40000154,359.31)" d="M0 0H.96V358.51H0Z" fill-rule="evenodd"/>
<path transform="matrix(1,0,0,-1,61.559999,1.8200073)" stroke-width=".14" stroke-linecap="square" stroke-linejoin="round" fill="none" stroke="#000000" d="M0 0V-357.43"/>
<path transform="matrix(1,0,0,-1,61.5,359.31)" d="M0 0H.96V357.55H0Z" fill-rule="evenodd"/>
<path transform="matrix(1,0,0,-1,163.68,1.8200073)" stroke-width=".14" stroke-linecap="square" stroke-linejoin="round" fill="none" stroke="#000000" d="M0 0V-357.43"/>
<path transform="matrix(1,0,0,-1,163.62,359.31)" d="M0 0H.96V357.55H0Z" fill-rule="evenodd"/>
<path transform="matrix(1,0,0,-1,252.39002,1.8200073)" stroke-width=".14" stroke-linecap="square" stroke-linejoin="round" fill="none" stroke="#000000" d="M0 0V-357.43"/>
<path transform="matrix(1,0,0,-1,252.32999,359.31)" d="M0 0H.96V357.55H0Z" fill-rule="evenodd"/>
<path transform="matrix(1,0,0,-1,342.63,1.8200073)" stroke-width=".14" stroke-linecap="square" stroke-linejoin="round" fill="none" stroke="#000000" d="M0 0V-357.43"/>
<path transform="matrix(1,0,0,-1,342.57,359.31)" d="M0 0H.96V357.55H0Z" fill-rule="evenodd"/>
<path transform="matrix(1,0,0,-1,426.77,1.8200073)" stroke-width=".14" stroke-linecap="square" stroke-linejoin="round" fill="none" stroke="#000000" d="M0 0V-357.43"/>
<path transform="matrix(1,0,0,-1,426.71,359.31)" d="M0 0H.96V357.55H0Z" fill-rule="evenodd"/>
<path transform="matrix(1,0,0,-1,510.89,1.8200073)" stroke-width=".14" stroke-linecap="square" stroke-linejoin="round" fill="none" stroke="#000000" d="M0 0V-357.43"/>
<path transform="matrix(1,0,0,-1,510.83003,359.31)" d="M0 0H.96V357.55H0Z" fill-rule="evenodd"/>
<path transform="matrix(1,0,0,-1,594.2,1.8200073)" stroke-width=".14" stroke-linecap="square" stroke-linejoin="round" fill="none" stroke="#000000" d="M0 0V-357.43"/>
<path transform="matrix(1,0,0,-1,594.14,359.31)" d="M0 0H.96V357.55H0Z" fill-rule="evenodd"/>
<path transform="matrix(1,0,0,-1,690.2,1.8200073)" stroke-width=".14" stroke-linecap="square" stroke-linejoin="round" fill="none" stroke="#000000" d="M0 0V-357.43"/>
<path transform="matrix(1,0,0,-1,690.14,359.31)" d="M0 0H.96V357.55H0Z" fill-rule="evenodd"/>
<path transform="matrix(1,0,0,-1,1.4199982,.85998538)" stroke-width=".14" stroke-linecap="square" stroke-linejoin="round" fill="none" stroke="#000000" d="M0 0H689.62"/>
<path transform="matrix(1,0,0,-1,1.3600006,1.7600098)" d="M0 0H689.74V.96H0Z" fill-rule="evenodd"/>
<path transform="matrix(1,0,0,-1,1.4199982,23.799988)" stroke-width=".14" stroke-linecap="square" stroke-linejoin="round" fill="none" stroke="#000000" d="M0 0H689.62"/>
<path transform="matrix(1,0,0,-1,1.3600006,24.700013)" d="M0 0H689.74V.96H0Z" fill-rule="evenodd"/>
<path transform="matrix(1,0,0,-1,62.519998,43.48001)" stroke-width=".14" stroke-linecap="square" stroke-linejoin="round" fill="none" stroke="#000000" d="M0 0H532.52"/>
<path transform="matrix(1,0,0,-1,62.46,44.380006)" d="M0 0H532.63V.96H0Z" fill-rule="evenodd"/>
<path transform="matrix(1,0,0,-1,62.519998,63.160005)" stroke-width=".14" stroke-linecap="square" stroke-linejoin="round" fill="none" stroke="#000000" d="M0 0H532.52"/>
<path transform="matrix(1,0,0,-1,62.46,64.06)" d="M0 0H532.63V.96H0Z" fill-rule="evenodd"/>
<path transform="matrix(1,0,0,-1,62.519998,82.84)" stroke-width=".14" stroke-linecap="square" stroke-linejoin="round" fill="none" stroke="#000000" d="M0 0H532.52"/>
<path transform="matrix(1,0,0,-1,62.46,83.73999)" d="M0 0H532.63V.96H0Z" fill-rule="evenodd"/>
<path transform="matrix(1,0,0,-1,62.519998,102.51999)" stroke-width=".14" stroke-linecap="square" stroke-linejoin="round" fill="none" stroke="#000000" d="M0 0H532.52"/>
<path transform="matrix(1,0,0,-1,62.46,103.42001)" d="M0 0H532.63V.96H0Z" fill-rule="evenodd"/>
<path transform="matrix(1,0,0,-1,62.519998,122.20001)" stroke-width=".14" stroke-linecap="square" stroke-linejoin="round" fill="none" stroke="#000000" d="M0 0H532.52"/>
<path transform="matrix(1,0,0,-1,62.46,123.100009)" d="M0 0H532.63V.96H0Z" fill-rule="evenodd"/>
<path transform="matrix(1,0,0,-1,62.519998,141.91)" stroke-width=".14" stroke-linecap="square" stroke-linejoin="round" fill="none" stroke="#000000" d="M0 0H532.52"/>
<path transform="matrix(1,0,0,-1,62.46,142.81)" d="M0 0H532.63V.96H0Z" fill-rule="evenodd"/>
<path transform="matrix(1,0,0,-1,62.519998,161.59)" stroke-width=".14" stroke-linecap="square" stroke-linejoin="round" fill="none" stroke="#000000" d="M0 0H532.52"/>
<path transform="matrix(1,0,0,-1,62.46,162.48999)" d="M0 0H532.63V.96H0Z" fill-rule="evenodd"/>
<path transform="matrix(1,0,0,-1,1.4199982,181.26999)" stroke-width=".14" stroke-linecap="square" stroke-linejoin="round" fill="none" stroke="#000000" d="M0 0H689.62"/>
<path transform="matrix(1,0,0,-1,1.3600006,182.17002)" d="M0 0H689.74V.96H0Z" fill-rule="evenodd"/>
<path transform="matrix(1,0,0,-1,62.519998,200.95001)" stroke-width=".14" stroke-linecap="square" stroke-linejoin="round" fill="none" stroke="#000000" d="M0 0H628.52"/>
<path transform="matrix(1,0,0,-1,62.46,201.85)" d="M0 0H628.63V.96H0Z" fill-rule="evenodd"/>
<path transform="matrix(1,0,0,-1,62.519998,220.63)" stroke-width=".14" stroke-linecap="square" stroke-linejoin="round" fill="none" stroke="#000000" d="M0 0H628.52"/>
<path transform="matrix(1,0,0,-1,62.46,221.53)" d="M0 0H628.63V.96H0Z" fill-rule="evenodd"/>
<path transform="matrix(1,0,0,-1,1.4199982,240.31)" stroke-width=".14" stroke-linecap="square" stroke-linejoin="round" fill="none" stroke="#000000" d="M0 0H689.62"/>
<path transform="matrix(1,0,0,-1,1.3600006,241.20999)" d="M0 0H689.74V.96H0Z" fill-rule="evenodd"/>
<path transform="matrix(1,0,0,-1,62.519998,260.01)" stroke-width=".14" stroke-linecap="square" stroke-linejoin="round" fill="none" stroke="#000000" d="M0 0H628.52"/>
<path transform="matrix(1,0,0,-1,62.46,260.91)" d="M0 0H628.63V.96H0Z" fill-rule="evenodd"/>
<path transform="matrix(1,0,0,-1,62.519998,279.69)" stroke-width=".14" stroke-linecap="square" stroke-linejoin="round" fill="none" stroke="#000000" d="M0 0H628.52"/>
<path transform="matrix(1,0,0,-1,62.46,280.59)" d="M0 0H628.63V.96H0Z" fill-rule="evenodd"/>
<path transform="matrix(1,0,0,-1,62.519998,299.37)" stroke-width=".14" stroke-linecap="square" stroke-linejoin="round" fill="none" stroke="#000000" d="M0 0H628.52"/>
<path transform="matrix(1,0,0,-1,62.46,300.27003)" d="M0 0H628.63V.96H0Z" fill-rule="evenodd"/>
<path transform="matrix(1,0,0,-1,62.519998,319.05)" stroke-width=".14" stroke-linecap="square" stroke-linejoin="round" fill="none" stroke="#000000" d="M0 0H628.52"/>
<path transform="matrix(1,0,0,-1,62.46,319.95)" d="M0 0H628.63V.96H0Z" fill-rule="evenodd"/>
<path transform="matrix(1,0,0,-1,62.519998,338.72999)" stroke-width=".14" stroke-linecap="square" stroke-linejoin="round" fill="none" stroke="#000000" d="M0 0H628.52"/>
<path transform="matrix(1,0,0,-1,62.46,339.63)" d="M0 0H628.63V.96H0Z" fill-rule="evenodd"/>
<path transform="matrix(1,0,0,-1,1.4199982,358.41)" stroke-width=".14" stroke-linecap="square" stroke-linejoin="round" fill="none" stroke="#000000" d="M0 0H689.62"/>
<path transform="matrix(1,0,0,-1,1.3600006,359.31)" d="M0 0H689.74V.96H0Z" fill-rule="evenodd"/>
</g>
</g>
</svg>
