<svg xmlns="http://www.w3.org/2000/svg" xmlns:xlink="http://www.w3.org/1999/xlink" version="1.1" width="737pt" height="362pt" viewBox="0 0 737 362">
<defs>
<clipPath id="clip_0">
<path transform="matrix(1,0,0,-1,-49,542)" d="M49 180H786V542H49Z" fill-rule="evenodd"/>
</clipPath>
<clipPath id="clip_1">
<path transform="matrix(1,0,0,-1,0,362)" d="M0 0H737V362H0Z"/>
</clipPath>
<clipPath id="clip_2">
<path transform="matrix(1,0,0,-1,-49,542)" d="M48.6 542.88H793.07998V52.679994H48.6Z" fill-rule="evenodd"/>
</clipPath>
<clipPath id="clip_3">
<path transform="matrix(1,0,0,-1,-49,542)" d="M.144 594.96H841.584V.5760498H.144Z" fill-rule="evenodd"/>
</clipPath>
<clipPath id="clip_4">
<path transform="matrix(1,0,0,-1,-49,542)" d="M50.52 540.96H785.52V180.96002H50.52Z" fill-rule="evenodd"/>
</clipPath>
<clipPath id="clip_5">
<path transform="matrix(1,0,0,-1,-49,542)" d="M48.624 542.88H794.064V52.656007H48.624Z" fill-rule="evenodd"/>
</clipPath>
<clipPath id="clip_6">
<path transform="matrix(1,0,0,-1,-49,542)" d="M47.64 543.84H788.4V178.08002H47.64Z" fill-rule="evenodd"/>
</clipPath>
</defs>
<g>
<g clip-path="url(#clip_0)">
<g>
<g clip-path="url(#clip_1)">
<path transform="matrix(1,0,0,-1,0,362)" d="M0 0H737V362H0Z" fill="#303030"/>
</g>
</g>
<g clip-path="url(#clip_2)">
<g clip-path="url(#clip_3)">
<g clip-path="url(#clip_4)">
<path transform="matrix(1,0,0,1,1.4000015,.91999819)" d="M0 0H65.16V24.12H0Z" fill="#b4c6e7" fill-rule="evenodd"/>
<path transform="matrix(1,0,0,1,66.44,.91999819)" d="M0 0H109.08V24.12H0Z" fill="#b4c6e7" fill-rule="evenodd"/>
<path transform="matrix(1,0,0,1,175.4,.91999819)" d="M0 0H95.16V24.12H0Z" fill="#b4c6e7" fill-rule="evenodd"/>
<path transform="matrix(1,0,0,1,270.44,.91999819)" d="M0 0H96.12V24.12H0Z" fill="#b4c6e7" fill-rule="evenodd"/>
<path transform="matrix(1,0,0,1,366.44,.91999819)" d="M0 0H89.04V24.12H0Z" fill="#b4c6e7" fill-rule="evenodd"/>
<path transform="matrix(1,0,0,1,455.36,.91999819)" d="M0 0H89.16V24.12H0Z" fill="#b4c6e7" fill-rule="evenodd"/>
<path transform="matrix(1,0,0,1,544.4,.91999819)" d="M0 0H89.16V24.12H0Z" fill="#b4c6e7" fill-rule="evenodd"/>
<path transform="matrix(1,0,0,1,633.44,.91999819)" d="M0 0H103.08V24.12H0Z" fill="#b4c6e7" fill-rule="evenodd"/>
<path transform="matrix(1,0,0,1,1.4000015,24.919999)" d="M0 0H65.16V168.12H0Z" fill="#e7e6e6" fill-rule="evenodd"/>
<path transform="matrix(1,0,0,1,1.4000015,192.92)" d="M0 0H65.16V21.12H0Z" fill="#e7e6e6" fill-rule="evenodd"/>
<path transform="matrix(1,0,0,1,1.4000015,213.91999)" d="M0 0H65.16V21.12H0Z" fill="#e7e6e6" fill-rule="evenodd"/>
<path transform="matrix(1,0,0,1,1.4000015,234.91999)" d="M0 0H65.16V126.12H0Z" fill="#e7e6e6" fill-rule="evenodd"/>
<path transform="matrix(1,0,0,1,66.44,24.919999)" d="M0 0H109.08V21.12H0Z" fill="#d9e1f2" fill-rule="evenodd"/>
<path transform="matrix(1,0,0,1,175.4,24.919999)" d="M0 0H95.16V21.12H0Z" fill="#d9e1f2" fill-rule="evenodd"/>
<path transform="matrix(1,0,0,1,270.44,24.919999)" d="M0 0H96.12V21.12H0Z" fill="#d9e1f2" fill-rule="evenodd"/>
<path transform="matrix(1,0,0,1,366.44,24.919999)" d="M0 0H89.04V21.12H0Z" fill="#d9e1f2" fill-rule="evenodd"/>
<path transform="matrix(1,0,0,1,455.36,24.919999)" d="M0 0H89.16V21.12H0Z" fill="#d9e1f2" fill-rule="evenodd"/>
<path transform="matrix(1,0,0,1,544.4,24.919999)" d="M0 0H89.16V21.12H0Z" fill="#d9e1f2" fill-rule="evenodd"/>
<path transform="matrix(1,0,0,1,633.44,24.919999)" d="M0 0H103.08V336.12H0Z" fill="#d9e1f2" fill-rule="evenodd"/>
<path transform="matrix(1,0,0,1,66.44,45.92)" d="M0 0H109.08V21.12H0Z" fill="#e2efda" fill-rule="evenodd"/>
<path transform="matrix(1,0,0,1,175.4,45.92)" d="M0 0H95.16V21.12H0Z" fill="#e2efda" fill-rule="evenodd"/>
<path transform="matrix(1,0,0,1,270.44,45.92)" d="M0 0H96.12V21.12H0Z" fill="#e2efda" fill-rule="evenodd"/>
<path transform="matrix(1,0,0,1,366.44,45.92)" d="M0 0H89.04V21.12H0Z" fill="#e2efda" fill-rule="evenodd"/>
<path transform="matrix(1,0,0,1,455.36,45.92)" d="M0 0H89.16V21.12H0Z" fill="#e2efda" fill-rule="evenodd"/>
<path transform="matrix(1,0,0,1,544.4,45.92)" d="M0 0H89.16V21.12H0Z" fill="#e2efda" fill-rule="evenodd"/>
<path transform="matrix(1,0,0,1,66.44,66.92)" d="M0 0H109.08V21.12H0Z" fill="#e2efda" fill-rule="evenodd"/>
<path transform="matrix(1,0,0,1,175.4,66.92)" d="M0 0H95.16V21.12H0Z" fill="#e2efda" fill-rule="evenodd"/>
<path transform="matrix(1,0,0,1,270.44,66.92)" d="M0 0H96.12V21.12H0Z" fill="#e2efda" fill-rule="evenodd"/>
<path transform="matrix(1,0,0,1,366.44,66.92)" d="M0 0H89.04V21.12H0Z" fill="#e2efda" fill-rule="evenodd"/>
<path transform="matrix(1,0,0,1,455.36,66.92)" d="M0 0H89.16V21.12H0Z" fill="#e2efda" fill-rule="evenodd"/>
<path transform="matrix(1,0,0,1,544.4,66.92)" d="M0 0H89.16V21.12H0Z" fill="#e2efda" fill-rule="evenodd"/>
<path transform="matrix(1,0,0,1,66.44,87.92)" d="M0 0H109.08V21.12H0Z" fill="#e2efda" fill-rule="evenodd"/>
<path transform="matrix(1,0,0,1,175.4,87.92)" d="M0 0H95.16V21.12H0Z" fill="#e2efda" fill-rule="evenodd"/>
<path transform="matrix(1,0,0,1,270.44,87.92)" d="M0 0H96.12V21.12H0Z" fill="#e2efda" fill-rule="evenodd"/>
<path transform="matrix(1,0,0,1,366.44,87.92)" d="M0 0H89.04V21.12H0Z" fill="#e2efda" fill-rule="evenodd"/>
<path transform="matrix(1,0,0,1,455.36,87.92)" d="M0 0H89.16V21.12H0Z" fill="#e2efda" fill-rule="evenodd"/>
<path transform="matrix(1,0,0,1,544.4,87.92)" d="M0 0H89.16V21.12H0Z" fill="#e2efda" fill-rule="evenodd"/>
<path transform="matrix(1,0,0,1,66.44,129.92)" d="M0 0H109.08V21.12H0Z" fill="#e2efda" fill-rule="evenodd"/>
<path transform="matrix(1,0,0,1,175.4,129.92)" d="M0 0H95.16V21.12H0Z" fill="#e2efda" fill-rule="evenodd"/>
<path transform="matrix(1,0,0,1,270.44,129.92)" d="M0 0H96.12V21.12H0Z" fill="#e2efda" fill-rule="evenodd"/>
<path transform="matrix(1,0,0,1,366.44,129.92)" d="M0 0H89.04V21.12H0Z" fill="#e2efda" fill-rule="evenodd"/>
<path transform="matrix(1,0,0,1,455.36,129.92)" d="M0 0H89.16V21.12H0Z" fill="#e2efda" fill-rule="evenodd"/>
<path transform="matrix(1,0,0,1,544.4,129.92)" d="M0 0H89.16V21.12H0Z" fill="#e2efda" fill-rule="evenodd"/>
<path transform="matrix(1,0,0,1,66.44,171.92)" d="M0 0H109.08V21.12H0Z" fill="#e2efda" fill-rule="evenodd"/>
<path transform="matrix(1,0,0,1,175.4,171.92)" d="M0 0H95.16V21.12H0Z" fill="#e2efda" fill-rule="evenodd"/>
<path transform="matrix(1,0,0,1,270.44,171.92)" d="M0 0H96.12V21.12H0Z" fill="#e2efda" fill-rule="evenodd"/>
<path transform="matrix(1,0,0,1,366.44,171.92)" d="M0 0H89.04V21.12H0Z" fill="#e2efda" fill-rule="evenodd"/>
<path transform="matrix(1,0,0,1,455.36,171.92)" d="M0 0H89.16V21.12H0Z" fill="#e2efda" fill-rule="evenodd"/>
<path transform="matrix(1,0,0,1,544.4,171.92)" d="M0 0H89.16V21.12H0Z" fill="#e2efda" fill-rule="evenodd"/>
<path transform="matrix(1,0,0,1,66.44,234.91999)" d="M0 0H109.08V21.12H0Z" fill="#e2efda" fill-rule="evenodd"/>
<path transform="matrix(1,0,0,1,175.4,234.91999)" d="M0 0H95.16V21.12H0Z" fill="#e2efda" fill-rule="evenodd"/>
<path transform="matrix(1,0,0,1,270.44,234.91999)" d="M0 0H96.12V21.12H0Z" fill="#e2efda" fill-rule="evenodd"/>
<path transform="matrix(1,0,0,1,366.44,234.91999)" d="M0 0H89.04V21.12H0Z" fill="#e2efda" fill-rule="evenodd"/>
<path transform="matrix(1,0,0,1,455.36,234.91999)" d="M0 0H89.16V21.12H0Z" fill="#e2efda" fill-rule="evenodd"/>
<path transform="matrix(1,0,0,1,544.4,234.91999)" d="M0 0H89.16V21.12H0Z" fill="#e2efda" fill-rule="evenodd"/>
<path transform="matrix(1,0,0,1,66.44,255.91999)" d="M0 0H109.08V21.12H0Z" fill="#e2efda" fill-rule="evenodd"/>
<path transform="matrix(1,0,0,1,175.4,255.91999)" d="M0 0H95.16V21.12H0Z" fill="#e2efda" fill-rule="evenodd"/>
<path transform="matrix(1,0,0,1,270.44,255.91999)" d="M0 0H96.12V21.12H0Z" fill="#e2efda" fill-rule="evenodd"/>
<path transform="matrix(1,0,0,1,366.44,255.91999)" d="M0 0H89.04V21.12H0Z" fill="#e2efda" fill-rule="evenodd"/>
<path transform="matrix(1,0,0,1,455.36,255.91999)" d="M0 0H89.16V21.12H0Z" fill="#e2efda" fill-rule="evenodd"/>
<path transform="matrix(1,0,0,1,544.4,255.91999)" d="M0 0H89.16V21.12H0Z" fill="#e2efda" fill-rule="evenodd"/>
<path transform="matrix(1,0,0,1,66.44,297.91999)" d="M0 0H109.08V21.12H0Z" fill="#e2efda" fill-rule="evenodd"/>
<path transform="matrix(1,0,0,1,175.4,297.91999)" d="M0 0H95.16V21.12H0Z" fill="#e2efda" fill-rule="evenodd"/>
<path transform="matrix(1,0,0,1,270.44,297.91999)" d="M0 0H96.12V21.12H0Z" fill="#e2efda" fill-rule="evenodd"/>
<path transform="matrix(1,0,0,1,366.44,297.91999)" d="M0 0H89.04V21.12H0Z" fill="#e2efda" fill-rule="evenodd"/>
<path transform="matrix(1,0,0,1,455.36,297.91999)" d="M0 0H89.16V21.12H0Z" fill="#e2efda" fill-rule="evenodd"/>
<path transform="matrix(1,0,0,1,544.4,297.91999)" d="M0 0H89.16V21.12H0Z" fill="#e2efda" fill-rule="evenodd"/>
<path transform="matrix(1,0,0,1,66.44,318.91999)" d="M0 0H109.08V21.12H0Z" fill="#e2efda" fill-rule="evenodd"/>
<path transform="matrix(1,0,0,1,175.4,318.91999)" d="M0 0H95.16V21.12H0Z" fill="#e2efda" fill-rule="evenodd"/>
<path transform="matrix(1,0,0,1,270.44,318.91999)" d="M0 0H96.12V21.12H0Z" fill="#e2efda" fill-rule="evenodd"/>
<path transform="matrix(1,0,0,1,366.44,318.91999)" d="M0 0H89.04V21.12H0Z" fill="#e2efda" fill-rule="evenodd"/>
<path transform="matrix(1,0,0,1,455.36,318.91999)" d="M0 0H89.16V21.12H0Z" fill="#e2efda" fill-rule="evenodd"/>
<path transform="matrix(1,0,0,1,544.4,318.91999)" d="M0 0H89.16V21.12H0Z" fill="#e2efda" fill-rule="evenodd"/>
<path transform="matrix(1,0,0,1,66.44,108.92)" d="M0 0H109.08V21.12H0Z" fill="#a9d08e" fill-rule="evenodd"/>
<path transform="matrix(1,0,0,1,175.4,108.92)" d="M0 0H95.16V21.12H0Z" fill="#a9d08e" fill-rule="evenodd"/>
<path transform="matrix(1,0,0,1,270.44,108.92)" d="M0 0H96.12V21.12H0Z" fill="#a9d08e" fill-rule="evenodd"/>
<path transform="matrix(1,0,0,1,366.44,108.92)" d="M0 0H89.04V21.12H0Z" fill="#a9d08e" fill-rule="evenodd"/>
<path transform="matrix(1,0,0,1,455.36,108.92)" d="M0 0H89.16V21.12H0Z" fill="#a9d08e" fill-rule="evenodd"/>
<path transform="matrix(1,0,0,1,544.4,108.92)" d="M0 0H89.16V21.12H0Z" fill="#a9d08e" fill-rule="evenodd"/>
<path transform="matrix(1,0,0,1,66.44,276.91999)" d="M0 0H109.08V21.12H0Z" fill="#a9d08e" fill-rule="evenodd"/>
<path transform="matrix(1,0,0,1,175.4,276.91999)" d="M0 0H95.16V21.12H0Z" fill="#a9d08e" fill-rule="evenodd"/>
<path transform="matrix(1,0,0,1,270.44,276.91999)" d="M0 0H96.12V21.12H0Z" fill="#a9d08e" fill-rule="evenodd"/>
<path transform="matrix(1,0,0,1,366.44,276.91999)" d="M0 0H89.04V21.12H0Z" fill="#a9d08e" fill-rule="evenodd"/>
<path transform="matrix(1,0,0,1,455.36,276.91999)" d="M0 0H89.16V21.12H0Z" fill="#a9d08e" fill-rule="evenodd"/>
<path transform="matrix(1,0,0,1,544.4,276.91999)" d="M0 0H89.16V21.12H0Z" fill="#a9d08e" fill-rule="evenodd"/>
<path transform="matrix(1,0,0,1,66.44,150.92)" d="M0 0H109.08V21.12H0Z" fill="#ffdccb" fill-rule="evenodd"/>
<path transform="matrix(1,0,0,1,175.4,150.92)" d="M0 0H95.16V21.12H0Z" fill="#ffdccb" fill-rule="evenodd"/>
<path transform="matrix(1,0,0,1,270.44,150.92)" d="M0 0H96.12V21.12H0Z" fill="#ffdccb" fill-rule="evenodd"/>
<path transform="matrix(1,0,0,1,366.44,150.92)" d="M0 0H89.04V21.12H0Z" fill="#ffdccb" fill-rule="evenodd"/>
<path transform="matrix(1,0,0,1,455.36,150.92)" d="M0 0H89.16V21.12H0Z" fill="#ffdccb" fill-rule="evenodd"/>
<path transform="matrix(1,0,0,1,544.4,150.92)" d="M0 0H89.16V21.12H0Z" fill="#ffdccb" fill-rule="evenodd"/>
<path transform="matrix(1,0,0,1,66.44,192.92)" d="M0 0H109.08V21.12H0Z" fill="#fce4d6" fill-rule="evenodd"/>
<path transform="matrix(1,0,0,1,175.4,192.92)" d="M0 0H95.16V21.12H0Z" fill="#fce4d6" fill-rule="evenodd"/>
<path transform="matrix(1,0,0,1,270.44,192.92)" d="M0 0H96.12V21.12H0Z" fill="#fce4d6" fill-rule="evenodd"/>
<path transform="matrix(1,0,0,1,366.44,192.92)" d="M0 0H89.04V21.12H0Z" fill="#fce4d6" fill-rule="evenodd"/>
<path transform="matrix(1,0,0,1,455.36,192.92)" d="M0 0H89.16V21.12H0Z" fill="#fce4d6" fill-rule="evenodd"/>
<path transform="matrix(1,0,0,1,544.4,192.92)" d="M0 0H89.16V21.12H0Z" fill="#fce4d6" fill-rule="evenodd"/>
<path transform="matrix(1,0,0,1,66.44,213.91999)" d="M0 0H109.08V21.12H0Z" fill="#fce4d6" fill-rule="evenodd"/>
<path transform="matrix(1,0,0,1,175.4,213.91999)" d="M0 0H95.16V21.12H0Z" fill="#fce4d6" fill-rule="evenodd"/>
<path transform="matrix(1,0,0,1,270.44,213.91999)" d="M0 0H96.12V21.12H0Z" fill="#fce4d6" fill-rule="evenodd"/>
<path transform="matrix(1,0,0,1,366.44,213.91999)" d="M0 0H89.04V21.12H0Z" fill="#fce4d6" fill-rule="evenodd"/>
<path transform="matrix(1,0,0,1,455.36,213.91999)" d="M0 0H89.16V21.12H0Z" fill="#fce4d6" fill-rule="evenodd"/>
<path transform="matrix(1,0,0,1,544.4,213.91999)" d="M0 0H89.16V21.12H0Z" fill="#fce4d6" fill-rule="evenodd"/>
<path transform="matrix(1,0,0,1,66.44,339.91999)" d="M0 0H109.08V21.12H0Z" fill="#fce4d6" fill-rule="evenodd"/>
<path transform="matrix(1,0,0,1,175.4,339.91999)" d="M0 0H95.16V21.12H0Z" fill="#fce4d6" fill-rule="evenodd"/>
<path transform="matrix(1,0,0,1,270.44,339.91999)" d="M0 0H96.12V21.12H0Z" fill="#fce4d6" fill-rule="evenodd"/>
<path transform="matrix(1,0,0,1,366.44,339.91999)" d="M0 0H89.04V21.12H0Z" fill="#fce4d6" fill-rule="evenodd"/>
<path transform="matrix(1,0,0,1,455.36,339.91999)" d="M0 0H89.16V21.12H0Z" fill="#fce4d6" fill-rule="evenodd"/>
<path transform="matrix(1,0,0,1,544.4,339.91999)" d="M0 0H89.16V21.12H0Z" fill="#fce4d6" fill-rule="evenodd"/>
<text xml:space="preserve" transform="matrix(1 0 0 1 -49 542)" font-size="10.56" font-family="STSongti-SC" font-weight="bold"><tspan y="-525.552" x="159.36 170.112 261.36003 272.11204 351.50404 362.25605 373.00804 443.90397 454.656 465.40797 532.8 543.552 554.304 621.83999 632.592 643.344 717.83999 728.592 739.344">&#x8282;&#x6b21;&#x65f6;&#x95f4;&#x661f;&#x671f;&#x4e00;&#x661f;&#x671f;&#x4e8c;&#x661f;&#x671f;&#x4e09;&#x661f;&#x671f;&#x56db;&#x661f;&#x671f;&#x4e94;</tspan><tspan y="-429.552" x="72.24 82.992">&#x4e0a;&#x5348;</tspan><tspan y="-502.992" x="117.12 127.872">&#x65e9;&#x8bfb;</tspan></text>
<text xml:space="preserve" transform="matrix(1 0 0 1 -49 542)" font-size="10.56" font-family="STSongti-SC" font-weight="bold"><tspan y="-525.552" x="159.36 170.112 261.36003 272.11204 351.50404 362.25605 373.00804 443.90397 454.656 465.40797 532.8 543.552 554.304 621.83999 632.592 643.344 717.83999 728.592 739.344">&#x8282;&#x6b21;&#x65f6;&#x95f4;&#x661f;&#x671f;&#x4e00;&#x661f;&#x671f;&#x4e8c;&#x661f;&#x671f;&#x4e09;&#x661f;&#x671f;&#x56db;&#x661f;&#x671f;&#x4e94;</tspan><tspan y="-429.552" x="72.24 82.992">&#x4e0a;&#x5348;</tspan><tspan y="-502.992" x="117.12 127.872">&#x65e9;&#x8bfb;</tspan></text>
<text xml:space="preserve" transform="matrix(1 0 -0 1 -49 542)" font-size="10.56" font-family="TimesNewRomanPSMT"><tspan y="-503.232" x="226.08 231.504 234.144 237.264 239.904 245.28 250.704 253.344 256.80003 259.44004 264.864 267.60005 270.624 273.36003 278.73603">7 : 20 - 7 : 45</tspan></text>
<text xml:space="preserve" transform="matrix(1 0 -0 1 -49 542)" font-size="10.56" font-family="STSongti-SC"><tspan y="-345.552" x="723.264 734.016">&#x6559;&#x7814;</tspan></text>
<text xml:space="preserve" transform="matrix(1 0 0 1 -49 542)" font-size="10.56" font-family="STSongti-SC" font-weight="bold"><tspan y="-481.968" x="117.12 127.872 138.62401 149.376">&#x7b2c;&#x4e00;&#x8282;&#x8bfe;</tspan></text>
<text xml:space="preserve" transform="matrix(1 0 0 1 -49 542)" font-size="10.56" font-family="STSongti-SC" font-weight="bold"><tspan y="-481.968" x="117.12 127.872 138.62401 149.376">&#x7b2c;&#x4e00;&#x8282;&#x8bfe;</tspan></text>
<text xml:space="preserve" transform="matrix(1 0 -0 1 -49 542)" font-size="10.56" font-family="TimesNewRomanPSMT"><tspan y="-482.208" x="226.08 231.504 234.144 237.264 239.904 245.28 250.704 253.344 256.80003 259.44004 264.864 267.60005 270.624 273.36003 278.73603">7 : 50 - 8 : 30</tspan></text>
<text xml:space="preserve" transform="matrix(1 0 0 1 -49 542)" font-size="10.56" font-family="STSongti-SC" font-weight="bold"><tspan y="-460.992" x="117.12 127.872 138.62401 149.376">&#x7b2c;&#x4e8c;&#x8282;&#x8bfe;</tspan></text>
<text xml:space="preserve" transform="matrix(1 0 0 1 -49 542)" font-size="10.56" font-family="STSongti-SC" font-weight="bold"><tspan y="-460.992" x="117.12 127.872 138.62401 149.376">&#x7b2c;&#x4e8c;&#x8282;&#x8bfe;</tspan></text>
<text xml:space="preserve" transform="matrix(1 0 -0 1 -49 542)" font-size="10.56" font-family="TimesNewRomanPSMT"><tspan y="-461.232" x="226.08 231.504 234.144 237.264 239.904 245.28 250.704 253.344 256.80003 259.44004 264.864 267.60005 270.624 273.36003 278.73603">8 : 40 - 9 : 20</tspan></text>
<text xml:space="preserve" transform="matrix(1 0 0 1 -49 542)" font-size="10.56" font-family="STSongti-SC" font-weight="bold"><tspan y="-439.968" x="117.12 127.872 138.62401 149.376">&#x7b2c;&#x4e09;&#x8282;&#x8bfe;</tspan></text>
<text xml:space="preserve" transform="matrix(1 0 0 1 -49 542)" font-size="10.56" font-family="STSongti-SC" font-weight="bold"><tspan y="-439.968" x="117.12 127.872 138.62401 149.376">&#x7b2c;&#x4e09;&#x8282;&#x8bfe;</tspan></text>
<text xml:space="preserve" transform="matrix(1 0 -0 1 -49 542)" font-size="10.56" font-family="TimesNewRomanPSMT"><tspan y="-440.208" x="226.08 231.504 234.144 237.264 239.904 245.28 250.704 253.344 256.80003 259.44004 264.81605 270.24003 272.87998 276 278.64006 284.01606">9 : 30 - 10 : 10</tspan></text>
<text xml:space="preserve" transform="matrix(1 0 0 1 -49 542)" font-size="10.56" font-family="STSongti-SC" font-weight="bold"><tspan y="-418.992" x="117.12 127.872 138.62401">&#x5927;&#x8bfe;&#x95f4;</tspan></text>
<text xml:space="preserve" transform="matrix(1 0 0 1 -49 542)" font-size="10.56" font-family="STSongti-SC" font-weight="bold"><tspan y="-418.992" x="117.12 127.872 138.62401">&#x5927;&#x8bfe;&#x95f4;</tspan></text>
<text xml:space="preserve" transform="matrix(1 0 -0 1 -49 542)" font-size="10.56" font-family="TimesNewRomanPSMT"><tspan y="-419.232" x="226.08 231.45603 236.88002 239.52002 242.64002 245.28002 250.65604 256.08003 258.72004 262.22404 264.86405 270.24006 275.66404 278.30406 281.424 284.06407 289.44007">10 : 10 - 10 : 35</tspan></text>
<text xml:space="preserve" transform="matrix(1 0 0 1 -49 542)" font-size="10.56" font-family="STSongti-SC" font-weight="bold"><tspan y="-397.968" x="117.12 127.872 138.62401 149.376">&#x7b2c;&#x56db;&#x8282;&#x8bfe;</tspan></text>
<text xml:space="preserve" transform="matrix(1 0 0 1 -49 542)" font-size="10.56" font-family="STSongti-SC" font-weight="bold"><tspan y="-397.968" x="117.12 127.872 138.62401 149.376">&#x7b2c;&#x56db;&#x8282;&#x8bfe;</tspan></text>
<text xml:space="preserve" transform="matrix(1 0 -0 1 -49 542)" font-size="10.56" font-family="TimesNewRomanPSMT"><tspan y="-398.208" x="226.08 231.45603 236.88002 239.52002 242.64002 245.28002 250.65604 256.08003 258.72004 262.22404 264.86405 270.24006 275.66404 278.30406 281.424 284.06407 289.44007">10 : 35 - 11 : 15</tspan></text>
<text xml:space="preserve" transform="matrix(1 0 -0 1 -49 542)" font-size="10.56" font-family="STSongti-SC"><tspan y="-397.96803" x="417.12 427.87205 438.624 443.664">&#x521d;&#x4e00;1&#x73ed;</tspan></text>
<text xml:space="preserve" transform="matrix(1 0 0 1 -49 542)" font-size="10.56" font-family="STSongti-SC" font-weight="bold"><tspan y="-376.992" x="117.12 127.872">&#x5348;&#x9910;</tspan></text>
<text xml:space="preserve" transform="matrix(1 0 0 1 -49 542)" font-size="10.56" font-family="STSongti-SC" font-weight="bold"><tspan y="-376.992" x="117.12 127.872">&#x5348;&#x9910;</tspan></text>
<text xml:space="preserve" transform="matrix(1 0 -0 1 -49 542)" font-size="10.56" font-family="TimesNewRomanPSMT"><tspan y="-377.232" x="226.08 231.45603 236.88002 239.52002 242.64002 245.28002 250.65604 256.08003 258.72004 262.22404 264.86405 270.24006 275.66404 278.30406 281.424 284.06407 289.44007">11 : 15 - 11 : 50</tspan></text>
<text xml:space="preserve" transform="matrix(1 0 0 1 -49 542)" font-size="10.56" font-family="STSongti-SC" font-weight="bold"><tspan y="-355.968" x="117.12 127.872 138.62401 149.376">&#x7b2c;&#x4e94;&#x8282;&#x8bfe;</tspan></text>
<text xml:space="preserve" transform="matrix(1 0 0 1 -49 542)" font-size="10.56" font-family="STSongti-SC" font-weight="bold"><tspan y="-355.968" x="117.12 127.872 138.62401 149.376">&#x7b2c;&#x4e94;&#x8282;&#x8bfe;</tspan></text>
<text xml:space="preserve" transform="matrix(1 0 -0 1 -49 542)" font-size="10.56" font-family="TimesNewRomanPSMT"><tspan y="-356.208" x="226.08 231.45603 236.88002 239.52002 242.64002 245.28002 250.65604 256.08003 258.72004 262.22404 264.86405 270.24006 275.66404 278.30406 281.424 284.06407 289.44007">11 : 50 - 12 : 30</tspan></text>
<text xml:space="preserve" transform="matrix(1 0 -0 1 -49 542)" font-size="10.56" font-family="STSongti-SC"><tspan y="-355.96803" x="417.12 427.87205 438.624 443.664 454.32 457.44 468.24006">&#x521d;&#x4e8c;3&#x73ed;(&#x5355;)</tspan></text>
<text xml:space="preserve" transform="matrix(1 0 0 1 -49 542)" font-size="10.56" font-family="STSongti-SC" font-weight="bold"><tspan y="-334.992" x="117.12 127.872">&#x5348;&#x4f11;</tspan></text>
<text xml:space="preserve" transform="matrix(1 0 0 1 -49 542)" font-size="10.56" font-family="STSongti-SC" font-weight="bold"><tspan y="-334.992" x="117.12 127.872">&#x5348;&#x4f11;</tspan></text>
<text xml:space="preserve" transform="matrix(1 0 -0 1 -49 542)" font-size="10.56" font-family="TimesNewRomanPSMT"><tspan y="-335.232" x="226.08 231.45603 236.88002 239.52002 242.64002 245.28002 250.65604 256.08003 258.72004 262.22404 264.86405 270.24006 275.66404 278.30406 281.424 284.06407 289.44007">12 : 40 - 13 : 30</tspan></text>
<text xml:space="preserve" transform="matrix(1 0 0 1 -49 542)" font-size="10.56" font-family="STSongti-SC" font-weight="bold"><tspan y="-313.968" x="117.12 127.872">&#x5348;&#x8bfb;</tspan></text>
<text xml:space="preserve" transform="matrix(1 0 0 1 -49 542)" font-size="10.56" font-family="STSongti-SC" font-weight="bold"><tspan y="-313.968" x="117.12 127.872">&#x5348;&#x8bfb;</tspan></text>
<text xml:space="preserve" transform="matrix(1 0 -0 1 -49 542)" font-size="10.56" font-family="TimesNewRomanPSMT"><tspan y="-314.208" x="226.08 231.45603 236.88002 239.52002 242.64002 245.28002 250.65604 256.08003 258.72004 262.22404 264.86405 270.24006 275.66404 278.30406 281.424 284.06407 289.44007">13 : 35 - 14 : 00</tspan></text>
<text xml:space="preserve" transform="matrix(1 0 0 1 -49 542)" font-size="10.56" font-family="STSongti-SC" font-weight="bold"><tspan y="-240.432" x="72.24 82.992">&#x4e0b;&#x5348;</tspan><tspan y="-292.992" x="117.12 127.872 138.62401 149.376">&#x7b2c;&#x516d;&#x8282;&#x8bfe;</tspan></text>
<text xml:space="preserve" transform="matrix(1 0 0 1 -49 542)" font-size="10.56" font-family="STSongti-SC" font-weight="bold"><tspan y="-240.432" x="72.24 82.992">&#x4e0b;&#x5348;</tspan><tspan y="-292.992" x="117.12 127.872 138.62401 149.376">&#x7b2c;&#x516d;&#x8282;&#x8bfe;</tspan></text>
<text xml:space="preserve" transform="matrix(1 0 -0 1 -49 542)" font-size="10.56" font-family="TimesNewRomanPSMT"><tspan y="-293.232" x="226.08 231.45603 236.88002 239.52002 242.64002 245.28002 250.65604 256.08003 258.72004 262.22404 264.86405 270.24006 275.66404 278.30406 281.424 284.06407 289.44007">14 : 10 - 14 : 50</tspan></text>
<text xml:space="preserve" transform="matrix(1 0 -0 1 -49 542)" font-size="10.56" font-family="STSongti-SC"><tspan y="-292.992" x="595.104 605.856 616.56 621.60006 632.3041 635.4241 646.08">&#x521d;&#x4e8c;2&#x73ed;(&#x5355;)</tspan></text>
<text xml:space="preserve" transform="matrix(1 0 0 1 -49 542)" font-size="10.56" font-family="STSongti-SC" font-weight="bold"><tspan y="-271.968" x="117.12 127.872 138.62401 149.376">&#x7b2c;&#x4e03;&#x8282;&#x8bfe;</tspan></text>
<text xml:space="preserve" transform="matrix(1 0 0 1 -49 542)" font-size="10.56" font-family="STSongti-SC" font-weight="bold"><tspan y="-271.968" x="117.12 127.872 138.62401 149.376">&#x7b2c;&#x4e03;&#x8282;&#x8bfe;</tspan></text>
<text xml:space="preserve" transform="matrix(1 0 -0 1 -49 542)" font-size="10.56" font-family="TimesNewRomanPSMT"><tspan y="-272.208" x="226.08 231.45603 236.88002 239.52002 242.64002 245.28002 250.65604 256.08003 258.72004 262.22404 264.86405 270.24006 275.66404 278.30406 281.424 284.06407 289.44007">15 : 00 - 15 : 40</tspan></text>
<text xml:space="preserve" transform="matrix(1 0 -0 1 -49 542)" font-size="10.56" font-family="STSongti-SC"><tspan y="-271.96803" x="321.12 331.872 342.624 347.66398">&#x521d;&#x4e00;4&#x73ed;</tspan></text>
<text xml:space="preserve" transform="matrix(1 0 0 1 -49 542)" font-size="10.56" font-family="STSongti-SC" font-weight="bold"><tspan y="-250.992" x="117.12 127.872 138.62401 149.376">&#x773c;&#x4fdd;&#x5065;&#x64cd;</tspan></text>
<text xml:space="preserve" transform="matrix(1 0 0 1 -49 542)" font-size="10.56" font-family="STSongti-SC" font-weight="bold"><tspan y="-250.992" x="117.12 127.872 138.62401 149.376">&#x773c;&#x4fdd;&#x5065;&#x64cd;</tspan></text>
<text xml:space="preserve" transform="matrix(1 0 -0 1 -49 542)" font-size="10.56" font-family="TimesNewRomanPSMT"><tspan y="-251.232" x="226.08 231.45603 236.88002 239.52002 242.64002 245.28002 250.65604 256.08003 258.72004 262.22404 264.86405 270.24006 275.66404 278.30406 281.424 284.06407 289.44007">15 : 40 - 15 : 55</tspan></text>
<text xml:space="preserve" transform="matrix(1 0 0 1 -49 542)" font-size="10.56" font-family="STSongti-SC" font-weight="bold"><tspan y="-229.968" x="117.12 127.872 138.62401 149.376">&#x7b2c;&#x516b;&#x8282;&#x8bfe;</tspan></text>
<text xml:space="preserve" transform="matrix(1 0 0 1 -49 542)" font-size="10.56" font-family="STSongti-SC" font-weight="bold"><tspan y="-229.968" x="117.12 127.872 138.62401 149.376">&#x7b2c;&#x516b;&#x8282;&#x8bfe;</tspan></text>
<text xml:space="preserve" transform="matrix(1 0 -0 1 -49 542)" font-size="10.56" font-family="TimesNewRomanPSMT"><tspan y="-230.208" x="226.08 231.45603 236.88002 239.52002 242.64002 245.28002 250.65604 256.08003 258.72004 262.22404 264.86405 270.24006 275.66404 278.30406 281.424 284.06407 289.44007">15 : 55 - 16 : 35</tspan></text>
<text xml:space="preserve" transform="matrix(1 0 -0 1 -49 542)" font-size="10.56" font-family="STSongti-SC"><tspan y="-229.96802" x="321.12 331.872 342.624 347.66398 358.31996 361.43998 372.24 417.1199 427.87196 438.6239 443.6639 506.0639 516.8159 527.51998 532.55996 595.10397 605.85598 616.55996 621.6 632.304 635.424 646.07998">&#x521d;&#x4e8c;1&#x73ed;(&#x5355;)&#x521d;&#x4e00;2&#x73ed;&#x521d;&#x4e00;3&#x73ed;&#x521d;&#x4e8c;4&#x73ed;(&#x5355;)</tspan></text>
<text xml:space="preserve" transform="matrix(1 0 0 1 -49 542)" font-size="10.56" font-family="STSongti-SC" font-weight="bold"><tspan y="-208.992" x="117.12 127.872 138.62401 149.376 160.08 163.20001 173.95201 184.70401 189.69602">&#x7b2c;&#x4e5d;&#x8282;&#x8bfe;(&#x5ef6;&#x65f6;1)</tspan></text>
<text xml:space="preserve" transform="matrix(1 0 0 1 -49 542)" font-size="10.56" font-family="STSongti-SC" font-weight="bold"><tspan y="-208.992" x="117.12 127.872 138.62401 149.376 160.08 163.20001 173.95201 184.70401 189.69602">&#x7b2c;&#x4e5d;&#x8282;&#x8bfe;(&#x5ef6;&#x65f6;1)</tspan></text>
<text xml:space="preserve" transform="matrix(1 0 -0 1 -49 542)" font-size="10.56" font-family="TimesNewRomanPSMT"><tspan y="-209.232" x="226.08 231.45603 236.88002 239.52002 242.64002 245.28002 250.65604 256.08003 258.72004 262.22404 264.86405 270.24006 275.66404 278.30406 281.424 284.06407 289.44007">16 : 45 - 17 : 25</tspan></text>
<text xml:space="preserve" transform="matrix(1 0 0 1 -49 542)" font-size="10.56" font-family="STSongti-SC" font-weight="bold"><tspan y="-187.968" x="117.12 127.872 138.62401 149.376 160.08 163.20001 173.95201 184.70401 189.69602">&#x7b2c;&#x5341;&#x8282;&#x8bfe;(&#x5ef6;&#x65f6;2)</tspan></text>
<text xml:space="preserve" transform="matrix(1 0 0 1 -49 542)" font-size="10.56" font-family="STSongti-SC" font-weight="bold"><tspan y="-187.968" x="117.12 127.872 138.62401 149.376 160.08 163.20001 173.95201 184.70401 189.69602">&#x7b2c;&#x5341;&#x8282;&#x8bfe;(&#x5ef6;&#x65f6;2)</tspan></text>
<text xml:space="preserve" transform="matrix(1 0 -0 1 -49 542)" font-size="10.56" font-family="TimesNewRomanPSMT"><tspan y="-188.208" x="226.08 231.45603 236.88002 239.52002 242.64002 245.28002 250.65604 256.08003 258.72004 262.22404 264.86405 270.24006 275.66404 278.30406 281.424 284.06407 289.44007">17 : 35 - 18 : 15</tspan></text>
</g>
</g>
</g>
<g clip-path="url(#clip_5)">
<g clip-path="url(#clip_6)">
<path transform="matrix(1,0,0,1,.5600014,.07999802)" d="M0 0H735.96V.96H0Z" fill-rule="evenodd"/>
<path transform="matrix(1,0,0,1,.5600014,24.079995)" d="M0 0H735.96V.96H0Z" fill-rule="evenodd"/>
<path transform="matrix(1,0,0,1,65.56,45.079996)" d="M0 0H567.96V.96H0Z" fill-rule="evenodd"/>
<path transform="matrix(1,0,0,1,65.56,66.079998)" d="M0 0H567.96V.96H0Z" fill-rule="evenodd"/>
<path transform="matrix(1,0,0,1,65.56,87.08)" d="M0 0H567.96V.96H0Z" fill-rule="evenodd"/>
<path transform="matrix(1,0,0,1,65.56,108.08)" d="M0 0H567.96V.96H0Z" fill-rule="evenodd"/>
<path transform="matrix(1,0,0,1,65.56,129.08)" d="M0 0H567.96V.96H0Z" fill-rule="evenodd"/>
<path transform="matrix(1,0,0,1,65.56,150.08)" d="M0 0H567.96V.96H0Z" fill-rule="evenodd"/>
<path transform="matrix(1,0,0,1,65.56,171.08)" d="M0 0H567.96V.96H0Z" fill-rule="evenodd"/>
<path transform="matrix(1,0,0,1,.5600014,192.08)" d="M0 0H632.96V.96H0Z" fill-rule="evenodd"/>
<path transform="matrix(1,0,0,1,65.56,213.07999)" d="M0 0H567.96V.96H0Z" fill-rule="evenodd"/>
<path transform="matrix(1,0,0,1,.5600014,234.07999)" d="M0 0H632.96V.96H0Z" fill-rule="evenodd"/>
<path transform="matrix(1,0,0,1,65.56,255.07999)" d="M0 0H567.96V.96H0Z" fill-rule="evenodd"/>
<path transform="matrix(1,0,0,1,65.56,276.08)" d="M0 0H567.96V.96H0Z" fill-rule="evenodd"/>
<path transform="matrix(1,0,0,1,65.56,297.08)" d="M0 0H567.96V.96H0Z" fill-rule="evenodd"/>
<path transform="matrix(1,0,0,1,65.56,318.08)" d="M0 0H567.96V.96H0Z" fill-rule="evenodd"/>
<path transform="matrix(1,0,0,1,65.56,339.08)" d="M0 0H567.96V.96H0Z" fill-rule="evenodd"/>
<path transform="matrix(1,0,0,1,.5600014,360.08)" d="M0 0H735.96V.96H0Z" fill-rule="evenodd"/>
<path transform="matrix(1,0,0,1,.5600014,.07999802)" d="M0 0H.96V360.96H0Z" fill-rule="evenodd"/>
<path transform="matrix(1,0,0,1,65.56,.07999802)" d="M0 0H.96V360.96H0Z" fill-rule="evenodd"/>
<path transform="matrix(1,0,0,1,174.56,.07999802)" d="M0 0H.96V360.96H0Z" fill-rule="evenodd"/>
<path transform="matrix(1,0,0,1,269.56,.07999802)" d="M0 0H.96V360.96H0Z" fill-rule="evenodd"/>
<path transform="matrix(1,0,0,1,365.56,.07999802)" d="M0 0H.96V360.96H0Z" fill-rule="evenodd"/>
<path transform="matrix(1,0,0,1,454.56,.07999802)" d="M0 0H.96V360.96H0Z" fill-rule="evenodd"/>
<path transform="matrix(1,0,0,1,543.56,.07999802)" d="M0 0H.96V360.96H0Z" fill-rule="evenodd"/>
<path transform="matrix(1,0,0,1,632.56,.07999802)" d="M0 0H.96V360.96H0Z" fill-rule="evenodd"/>
<path transform="matrix(1,0,0,1,735.56,.07999802)" d="M0 0H.96V360.96H0Z" fill-rule="evenodd"/>
</g>
</g>
</g>
</g>
</svg>
