<svg x="0" y="0" width="998" height="527" viewBox="0 0 998 527" version="1.1" xmlns="http://www.w3.org/2000/svg" style="display: block;margin-left: auto;margin-right: auto;">
<defs>
<clipPath id="c_1"><path d="M0,0H998V527H0Z"/></clipPath>
<clipPath id="c0"><path d="M-.2 528.2V-1H999.5V528.2Z"/></clipPath>
<clipPath id="c1"><path d="M3.5 524.9V4.9H995.6v520Z"/></clipPath>

<style>
text { white-space: pre; }
path, image { pointer-events: none; }

.s0{font-size:16.81px;font-family:STSongti-SC-Bold_d;fill:#000;stroke:#000;stroke-width:0.5;}
.s1{font-size:16.81px;font-family:TimesNewRomanPSMT_i;fill:#000;}
.s2{font-size:16.81px;font-family:STSongti-SC-Regular_n;fill:#000;}

.g0{fill:#484848;}
.g1{fill:#B4C6E7;}
.g2{fill:#E7E6E6;}
.g3{fill:#D9E1F2;}
.g4{fill:#E2EFDA;}
.g5{fill:#A9D08E;}
.g6{fill:#FCE4D6;}
.g7{fill:#000;}

</style>

</defs>
<path d="M0 0V527H998V0Z" fill="#FFFFFF" stroke="none"/>
<g clip-path="url(#c_1)">
<g clip-path="url(#c0)">
<path d="M0 527.9H998.5V0H0V527.9Z" class="g0"/>
</g>
<g clip-path="url(#c1)">
<path fill-rule="evenodd" d="M3.6 5H94V43.3H3.6V5Z" class="g1"/>
<path fill-rule="evenodd" d="M93.8 5H245.2V43.3H93.8V5Z" class="g1"/>
<path fill-rule="evenodd" d="M245.1 5H376.5V43.3H245.1V5Z" class="g1"/>
<path fill-rule="evenodd" d="M376.3 5H479V43.3H376.3V5Z" class="g1"/>
<path fill-rule="evenodd" d="M478.8 5H604.2V43.3H478.8V5Z" class="g1"/>
<path fill-rule="evenodd" d="M604 5H729.4V43.3H604V5Z" class="g1"/>
<path fill-rule="evenodd" d="M729.2 5h124V43.3h-124V5Z" class="g1"/>
<path fill-rule="evenodd" d="M853 5H995.3V43.3H853V5Z" class="g1"/>
<path fill-rule="evenodd" d="M3.6 43.2H94V278.7H3.6V43.2Z" class="g2"/>
<path fill-rule="evenodd" d="M3.6 278.6H94v33.7H3.6V278.6Z" class="g2"/>
<path fill-rule="evenodd" d="M3.6 312.1H94V524.6H3.6V312.1Z" class="g2"/>
</g>
<path fill-rule="evenodd" d="M93.8 43.2H245.2V77.1H93.8V43.2Z" class="g3"/>
<path fill-rule="evenodd" d="M245.1 43.2H376.5V77.1H245.1V43.2Z" class="g3"/>
<path fill-rule="evenodd" d="M376.3 43.2H479V77.1H376.3V43.2Z" class="g3"/>
<path fill-rule="evenodd" d="M478.8 43.2H604.2V77.1H478.8V43.2Z" class="g3"/>
<path fill-rule="evenodd" d="M604 43.2H729.4V77.1H604V43.2Z" class="g3"/>
<path fill-rule="evenodd" d="M729.2 43.2h124V77.1h-124V43.2Z" class="g3"/>
<path fill-rule="evenodd" d="M853 43.2H995.3V77.1H853V43.2Z" class="g3"/>
<path fill-rule="evenodd" d="M93.8 76.9H245.2v33.7H93.8V76.9Z" class="g4"/>
<path fill-rule="evenodd" d="M245.1 76.9H376.5v33.7H245.1V76.9Z" class="g4"/>
<path fill-rule="evenodd" d="M376.3 76.9H479v33.7H376.3V76.9Z" class="g4"/>
<path fill-rule="evenodd" d="M478.8 76.9H604.2v33.7H478.8V76.9Z" class="g4"/>
<path fill-rule="evenodd" d="M604 76.9H729.4v33.7H604V76.9Z" class="g4"/>
<path fill-rule="evenodd" d="M729.2 76.9h124v33.7h-124V76.9Z" class="g4"/>
<path fill-rule="evenodd" d="M853 76.9H995.3v33.7H853V76.9Z" class="g4"/>
<path fill-rule="evenodd" d="M93.8 110.4H245.2v33.8H93.8V110.4Z" class="g4"/>
<path fill-rule="evenodd" d="M245.1 110.4H376.5v33.8H245.1V110.4Z" class="g4"/>
<path fill-rule="evenodd" d="M376.3 110.4H479v33.8H376.3V110.4Z" class="g4"/>
<path fill-rule="evenodd" d="M478.8 110.4H604.2v33.8H478.8V110.4Z" class="g4"/>
<path fill-rule="evenodd" d="M604 110.4H729.4v33.8H604V110.4Z" class="g4"/>
<path fill-rule="evenodd" d="M729.2 110.4h124v33.8h-124V110.4Z" class="g4"/>
<path fill-rule="evenodd" d="M853 110.4H995.3v33.8H853V110.4Z" class="g4"/>
<path fill-rule="evenodd" d="M93.8 177.7H245.2v33.8H93.8V177.7Z" class="g4"/>
<path fill-rule="evenodd" d="M245.1 177.7H376.5v33.8H245.1V177.7Z" class="g4"/>
<path fill-rule="evenodd" d="M376.3 177.7H479v33.8H376.3V177.7Z" class="g4"/>
<path fill-rule="evenodd" d="M478.8 177.7H604.2v33.8H478.8V177.7Z" class="g4"/>
<path fill-rule="evenodd" d="M604 177.7H729.4v33.8H604V177.7Z" class="g4"/>
<path fill-rule="evenodd" d="M729.2 177.7h124v33.8h-124V177.7Z" class="g4"/>
<path fill-rule="evenodd" d="M853 177.7H995.3v33.8H853V177.7Z" class="g4"/>
<path fill-rule="evenodd" d="M93.8 211.3H245.2V245H93.8V211.3Z" class="g4"/>
<path fill-rule="evenodd" d="M245.1 211.3H376.5V245H245.1V211.3Z" class="g4"/>
<path fill-rule="evenodd" d="M376.3 211.3H479V245H376.3V211.3Z" class="g4"/>
<path fill-rule="evenodd" d="M478.8 211.3H604.2V245H478.8V211.3Z" class="g4"/>
<path fill-rule="evenodd" d="M604 211.3H729.4V245H604V211.3Z" class="g4"/>
<path fill-rule="evenodd" d="M729.2 211.3h124V245h-124V211.3Z" class="g4"/>
<path fill-rule="evenodd" d="M853 211.3H995.3V245H853V211.3Z" class="g4"/>
<path fill-rule="evenodd" d="M93.8 244.8H245.2v33.9H93.8V244.8Z" class="g4"/>
<path fill-rule="evenodd" d="M245.1 244.8H376.5v33.9H245.1V244.8Z" class="g4"/>
<path fill-rule="evenodd" d="M376.3 244.8H479v33.9H376.3V244.8Z" class="g4"/>
<path fill-rule="evenodd" d="M478.8 244.8H604.2v33.9H478.8V244.8Z" class="g4"/>
<path fill-rule="evenodd" d="M604 244.8H729.4v33.9H604V244.8Z" class="g4"/>
<path fill-rule="evenodd" d="M729.2 244.8h124v33.9h-124V244.8Z" class="g4"/>
<path fill-rule="evenodd" d="M853 244.8H995.3v33.9H853V244.8Z" class="g4"/>
<path fill-rule="evenodd" d="M93.8 312.1H245.2v33.7H93.8V312.1Z" class="g4"/>
<path fill-rule="evenodd" d="M245.1 312.1H376.5v33.7H245.1V312.1Z" class="g4"/>
<path fill-rule="evenodd" d="M376.3 312.1H479v33.7H376.3V312.1Z" class="g4"/>
<path fill-rule="evenodd" d="M478.8 312.1H604.2v33.7H478.8V312.1Z" class="g4"/>
<path fill-rule="evenodd" d="M604 312.1H729.4v33.7H604V312.1Z" class="g4"/>
<path fill-rule="evenodd" d="M729.2 312.1h124v33.7h-124V312.1Z" class="g4"/>
<path fill-rule="evenodd" d="M853 312.1H995.3v33.7H853V312.1Z" class="g4"/>
<path fill-rule="evenodd" d="M93.8 345.7H245.2v26.2H93.8V345.7Z" class="g4"/>
<path fill-rule="evenodd" d="M245.1 345.7H376.5v26.2H245.1V345.7Z" class="g4"/>
<path fill-rule="evenodd" d="M376.3 345.7H479v26.2H376.3V345.7Z" class="g4"/>
<path fill-rule="evenodd" d="M478.8 345.7H604.2v26.2H478.8V345.7Z" class="g4"/>
<path fill-rule="evenodd" d="M604 345.7H729.4v26.2H604V345.7Z" class="g4"/>
<path fill-rule="evenodd" d="M729.2 345.7h124v26.2h-124V345.7Z" class="g4"/>
<path fill-rule="evenodd" d="M853 345.7H995.3v26.2H853V345.7Z" class="g4"/>
<path fill-rule="evenodd" d="M93.8 371.7H245.2v52.1H93.8V371.7Z" class="g4"/>
<path fill-rule="evenodd" d="M245.1 371.7H376.5v52.1H245.1V371.7Z" class="g4"/>
<path fill-rule="evenodd" d="M376.3 371.7H479v52.1H376.3V371.7Z" class="g4"/>
<path fill-rule="evenodd" d="M478.8 371.7H604.2v52.1H478.8V371.7Z" class="g4"/>
<path fill-rule="evenodd" d="M604 371.7H729.4v52.1H604V371.7Z" class="g4"/>
<path fill-rule="evenodd" d="M729.2 371.7h124v52.1h-124V371.7Z" class="g4"/>
<path fill-rule="evenodd" d="M853 371.7H995.3v52.1H853V371.7Z" class="g4"/>
<path fill-rule="evenodd" d="M93.8 457.3H245.2V491H93.8V457.3Z" class="g4"/>
<path fill-rule="evenodd" d="M245.1 457.3H376.5V491H245.1V457.3Z" class="g4"/>
<path fill-rule="evenodd" d="M376.3 457.3H479V491H376.3V457.3Z" class="g4"/>
<path fill-rule="evenodd" d="M478.8 457.3H604.2V491H478.8V457.3Z" class="g4"/>
<path fill-rule="evenodd" d="M604 457.3H729.4V491H604V457.3Z" class="g4"/>
<path fill-rule="evenodd" d="M729.2 457.3h124V491h-124V457.3Z" class="g4"/>
<path fill-rule="evenodd" d="M853 457.3H995.3V491H853V457.3Z" class="g4"/>
<path fill-rule="evenodd" d="M93.8 144H245.2v33.9H93.8V144Z" class="g5"/>
<path fill-rule="evenodd" d="M245.1 144H376.5v33.9H245.1V144Z" class="g5"/>
<path fill-rule="evenodd" d="M376.3 144H479v33.9H376.3V144Z" class="g5"/>
<path fill-rule="evenodd" d="M478.8 144H604.2v33.9H478.8V144Z" class="g5"/>
<path fill-rule="evenodd" d="M604 144H729.4v33.9H604V144Z" class="g5"/>
<path fill-rule="evenodd" d="M729.2 144h124v33.9h-124V144Z" class="g5"/>
<path fill-rule="evenodd" d="M853 144H995.3v33.9H853V144Z" class="g5"/>
<path fill-rule="evenodd" d="M93.8 423.6H245.2v33.9H93.8V423.6Z" class="g5"/>
<path fill-rule="evenodd" d="M245.1 423.6H376.5v33.9H245.1V423.6Z" class="g5"/>
<path fill-rule="evenodd" d="M376.3 423.6H479v33.9H376.3V423.6Z" class="g5"/>
<path fill-rule="evenodd" d="M478.8 423.6H604.2v33.9H478.8V423.6Z" class="g5"/>
<path fill-rule="evenodd" d="M604 423.6H729.4v33.9H604V423.6Z" class="g5"/>
<path fill-rule="evenodd" d="M729.2 423.6h124v33.9h-124V423.6Z" class="g5"/>
<path fill-rule="evenodd" d="M853 423.6H995.3v33.9H853V423.6Z" class="g5"/>
<path fill-rule="evenodd" d="M93.8 278.6H245.2v33.7H93.8V278.6Z" class="g6"/>
<path fill-rule="evenodd" d="M245.1 278.6H376.5v33.7H245.1V278.6Z" class="g6"/>
<path fill-rule="evenodd" d="M376.3 278.6H479v33.7H376.3V278.6Z" class="g6"/>
<path fill-rule="evenodd" d="M478.8 278.6H604.2v33.7H478.8V278.6Z" class="g6"/>
<path fill-rule="evenodd" d="M604 278.6H729.4v33.7H604V278.6Z" class="g6"/>
<path fill-rule="evenodd" d="M729.2 278.6h124v33.7h-124V278.6Z" class="g6"/>
<path fill-rule="evenodd" d="M853 278.6H995.3v33.7H853V278.6Z" class="g6"/>
<path fill-rule="evenodd" d="M93.8 490.9H245.2v33.7H93.8V490.9Z" class="g6"/>
<path fill-rule="evenodd" d="M245.1 490.9H376.5v33.7H245.1V490.9Z" class="g6"/>
<path fill-rule="evenodd" d="M376.3 490.9H479v33.7H376.3V490.9Z" class="g6"/>
<path fill-rule="evenodd" d="M478.8 490.9H604.2v33.7H478.8V490.9Z" class="g6"/>
<path fill-rule="evenodd" d="M604 490.9H729.4v33.7H604V490.9Z" class="g6"/>
<path fill-rule="evenodd" d="M729.2 490.9h124v33.7h-124V490.9Z" class="g6"/>
<path fill-rule="evenodd" d="M853 490.9H995.3v33.7H853V490.9Z" class="g6"/>
<g clip-path="url(#c1)">
<text x="152.5" y="29.8" dx="0 .3" class="s0">节次 </text>
<text x="293.8" y="29.8" dx="0 .3" class="s0">时间 </text>
<text x="402.2" y="29.8" dx="0 .3 .3" class="s0">星期一 </text>
<text x="515.9" y="29.8" dx="0 .3 .3" class="s0">星期二 </text>
<text x="641.1" y="29.8" dx="0 .3 .3" class="s0">星期三 </text>
<text x="765.7" y="29.8" dx="0 .3 .3" class="s0">星期四 </text>
<text x="898.6" y="29.8" dx="0 .3 .3" class="s0">星期五 </text>
<text x="31.6" y="166.4" dx="0 .3" class="s0">上午 </text>
<text x="96.3" y="65.6" dx="0 .3" class="s0">早读 </text>
<text x="247.6" y="65.4" dx="0 .2 .2 .2 .2 0 -.1 .2 .2 .2 .2" class="s1">7:30 - 7:50 </text>
<text x="379.1" y="65.6" dx="0 .3" class="s2">升旗 </text>
<text x="96.3" y="99.3" dx="0 .3 .3 .3" class="s0">第一节课 </text>
<text x="247.6" y="99" dx="0 .2 .2 .2 .2 0 -.1 .2 .2 .2 .2" class="s1">8:00 - 8:40 </text>
<text x="96.3" y="132.9" dx="0 .3 .3 .3" class="s0">第二节课 </text>
<text x="247.6" y="132.5" dx="0 .2 .2 .2 .2 0 -.1 .2 .2 .2 .2" class="s1">8:50 - 9:30 </text>
<text x="606.6" y="132.9" dx="0 .1 .1 .1 .4 .3 .2" class="s2">903（单周） </text>
<text x="96.3" y="166.4" dx="0 .3 .3 .3" class="s0">眼保健操 </text>
<text x="247.6" y="166.3" dx="0 .2 .2 .2 .2 0 -.1 .2 .2 .2 .2" class="s1">9:30 - 9:45 </text>
<text x="96.3" y="200.2" dx="0 .3 .3 .3" class="s0">第三节课 </text>
<text x="247.6" y="199.8" dx="0 .2 .2 .2 .2 0 -.1 .2 .2 .2 .2 .2" class="s1">9:45 - 10:25 </text>
<text x="96.3" y="233.7" dx="0 .3 .3 .3" class="s0">第四节课 </text>
<text x="247.6" y="233.3" dx="0 .2 .2 .2 .2 .3 0 -.1 0 .2 .2 .2 .2" class="s1">10:35 - 11:15 </text>
<text x="379.1" y="233.7" dx="0 .1 .1 .1 .2 .3 .4" class="s2">801（单周） </text>
<text x="96.3" y="267.2" dx="0 .3 .3 .3" class="s0">第五节课 </text>
<text x="247.6" y="267.1" dx="0 .2 .2 .2 .2 .3 0 -.1 0 .2 .2 .2 .2" class="s1">11:50 - 12:30 </text>
<text x="379.1" y="267.2" dx="0 .1 .1" class="s2">701 </text>
<text x="855.7" y="267.2" dx="0 .1 .1" class="s2">703 </text>
<text x="31.6" y="424" dx="0 .3" class="s0">下午 </text>
<text x="96.3" y="334.5" dx="0 .3 .3 .3" class="s0">第六节课 </text>
<text x="247.6" y="334.2" dx="0 .2 .2 .2 .2 .3 0 -.1 0 .2 .2 .2 .2" class="s1">14:00 - 14:40 </text>
<text x="481.3" y="334.5" dx="0 .1 .1" class="s2">704 </text>
<text x="732" y="334.5" dx="0 .1 .1" class="s2">702 </text>
<text x="855.7" y="334.5" dx="0 .1 .1 .1 .2 .3 .4" class="s2">904（单周） </text>
<text x="96.3" y="364.4" dx="0 .3 .3 .3" class="s0">第七节课 </text>
<text x="247.6" y="363.9" dx="0 .2 .2 .2 .2 .3 0 -.1 0 .2 .2 .2 .2" class="s1">14:50 - 15:30 </text>
<text x="606.6" y="364.4" dx="0 .1 .1 .1 .4 .3 .2" class="s2">901（单周） </text>
<text x="732" y="364.4" dx="0 .1 .1 .1 .2 .3 .4" class="s2">804（双周） </text>
<text x="96.3" y="403.3" dx="0 .3 .3 .3" class="s0">第八节课 </text>
<text x="247.6" y="402.9" dx="0 .2 .2 .2 .2 .3 0 -.1 0 .2 .2 .2 .2" class="s1">15:40 - 16:20 </text>
<text x="379.1" y="403.3" dx="0 .1 .1 .1 .2 .3 .4" class="s2">902（双周） </text>
<text x="732" y="390.5" dx="0 .1 .1 .1 .2 .3 .4" class="s2">802（单周） </text>
<text x="732" y="416.1" dx="0 .1 .1 .1 .2 .3 .4" class="s2">803（双周） </text>
<text x="96.3" y="446" dx="0 .3 .3" class="s0">大课间 </text>
<text x="247.6" y="445.8" dx="0 .2 .2 .2 .2 .3 0 -.1 0 .2 .2 .2 .2" class="s1">16:20 - 16:45 </text>
<text x="96.3" y="479.8" dx="0 .3 .3 .3 .3" class="s0">延时第一节 </text>
<text x="247.6" y="479.4" dx="0 .2 .2 .2 .2 .3 0 -.1 0 .2 .2 .2 .2" class="s1">16:45 - 17:25 </text>
<text x="96.3" y="513.3" dx="0 .3 .3 .3 .3" class="s0">延时第二节 </text>
<text x="247.6" y="512.9" dx="0 .2 .2 .2 .2 .3 0 -.1 0 .2 .2 .2 .2" class="s1">17:35 - 18:15 </text>
</g>
<path fill-rule="evenodd" d="M2.3 3.7h993V5.2H2.3V3.7Z" class="g7"/>
<path fill-rule="evenodd" d="M2.3 41.9h993v1.5H2.3V41.9Z" class="g7"/>
<path fill-rule="evenodd" d="M92.5 75.5H995.3V77H92.5V75.5Z" class="g7"/>
<path fill-rule="evenodd" d="M92.5 109.2H995.3v1.4H92.5v-1.4Z" class="g7"/>
<path fill-rule="evenodd" d="M92.5 142.8H995.3v1.4H92.5v-1.4Z" class="g7"/>
<path fill-rule="evenodd" d="M92.5 176.4H995.3v1.4H92.5v-1.4Z" class="g7"/>
<path fill-rule="evenodd" d="M92.5 210H995.3v1.5H92.5V210Z" class="g7"/>
<path fill-rule="evenodd" d="M92.5 243.6H995.3v1.5H92.5v-1.5Z" class="g7"/>
<path fill-rule="evenodd" d="M2.3 277.2h993v1.5H2.3v-1.5Z" class="g7"/>
<path fill-rule="evenodd" d="M2.3 310.8h993v1.5H2.3v-1.5Z" class="g7"/>
<path fill-rule="evenodd" d="M92.5 344.4H995.3v1.5H92.5v-1.5Z" class="g7"/>
<path fill-rule="evenodd" d="M92.5 370.4H995.3v1.5H92.5v-1.5Z" class="g7"/>
<path fill-rule="evenodd" d="M92.5 422.3H995.3v1.5H92.5v-1.5Z" class="g7"/>
<path fill-rule="evenodd" d="M92.5 456H995.3v1.4H92.5V456Z" class="g7"/>
<path fill-rule="evenodd" d="M92.5 489.6H995.3V491H92.5v-1.4Z" class="g7"/>
<path fill-rule="evenodd" d="M2.3 523.2h993v1.4H2.3v-1.4Z" class="g7"/>
<path fill-rule="evenodd" d="M2.3 3.7H3.8V524.6H2.3V3.7Z" class="g7"/>
<path fill-rule="evenodd" d="M92.5 3.7h1.4V524.6H92.5V3.7Z" class="g7"/>
<path fill-rule="evenodd" d="M243.7 3.7h1.5V524.6h-1.5V3.7Z" class="g7"/>
<path fill-rule="evenodd" d="M375.1 3.7h1.5V524.6h-1.5V3.7Z" class="g7"/>
<path fill-rule="evenodd" d="M477.5 3.7h1.4V524.6h-1.4V3.7Z" class="g7"/>
<path fill-rule="evenodd" d="M602.7 3.7h1.5V524.6h-1.5V3.7Z" class="g7"/>
<path fill-rule="evenodd" d="M728 3.7h1.5V524.6H728V3.7Z" class="g7"/>
<path fill-rule="evenodd" d="M851.8 3.7h1.4V524.6h-1.4V3.7Z" class="g7"/>
<path fill-rule="evenodd" d="M993.8 3.7h1.5V524.6h-1.5V3.7Z" class="g7"/>

</g>

<style>

@font-face {
	font-family: STSongti-SC-Bold_d;
	src: url("fonts/STSongti-SC-Bold_d.woff") format("woff");
}

@font-face {
	font-family: STSongti-SC-Regular_n;
	src: url("fonts/STSongti-SC-Regular_n.woff") format("woff");
}

@font-face {
	font-family: TimesNewRomanPSMT_i;
	src: url("fonts/TimesNewRomanPSMT_i.woff") format("woff");
}

</style>

</svg>
